Music_Asgore:
	channel_count 4
	channel 1, Music_Asgore_Ch1
	channel 2, Music_Asgore_Ch2
	channel 3, Music_Asgore_Ch3
	channel 4, Music_Asgore_Ch4

Music_Asgore_Ch1:
	volume 7, 7
	note_type 6, 15, -7
	tempo 167
	duty_cycle 0
.mainloop:
	duty_cycle 0
	octave 3
	vibrato 16, 7, 1
	note E_, 2
	rest 2
	volume_envelope 8, -7
	note E_, 2
	rest 2
	volume_envelope 15, -7
	note G#, 2
	rest 2
	volume_envelope 8, -7
	note G#, 2
	rest 2
	volume_envelope 15, -7
	note F#, 10
	rest 2
	note G#, 3
	rest 1
	note C#, 5
	rest 1
	note D#, 5
	rest 1
	note E_, 3
	rest 1
	note G#, 16
	note E_, 2
	rest 2
	volume_envelope 8, -7
	note E_, 2
	rest 2
	volume_envelope 15, -7
	note G#, 2
	rest 2
	volume_envelope 8, -7
	note G#, 2
	rest 2
	volume_envelope 15, -7
	note F#, 10
	rest 2
	note G#, 3
	rest 1
	note C#, 5
	rest 1
	note D#, 5
	rest 1
	note B_, 2
	rest 2
	note G#, 16
	note G#, 2
	rest 2
	volume_envelope 8, -7
	note G#, 2
	rest 2
	volume_envelope 15, -7
	note A_, 2
	rest 2
	volume_envelope 8, -7
	note A_, 2
	rest 2
	octave 4
	volume_envelope 15, -7
	note B_, 12
	octave 5
	note C#, 4
	octave 4
	note E_, 6
	note F#, 6
	note G#, 4
	note B_, 12
	octave 5
	note C#, 4
	octave 4
	note E_, 6
	octave 5
	note D#, 6
	octave 4
	note B_, 4
	note G#, 16
	note G#, 12
	note A_, 2
	note G#, 2
	note F#, 16
	octave 3
	note E_, 2
	rest 2
	volume_envelope 8, -7
	note E_, 2
	rest 2
	volume_envelope 15, -7
	note G#, 2
	rest 2
	volume_envelope 8, -7
	note G#, 2
	rest 2
	volume_envelope 15, -7
	note F#, 10
	rest 2
	note G#, 3
	rest 1
	note C#, 5
	rest 1
	note D#, 5
	rest 1
	note E_, 3
	rest 1
	note G#, 16
	note E_, 2
	rest 2
	volume_envelope 8, -7
	note E_, 2
	rest 2
	volume_envelope 15, -7
	note G#, 2
	rest 2
	volume_envelope 8, -7
	note G#, 2
	rest 2
	volume_envelope 15, -7
	note F#, 10
	rest 2
	note G#, 3
	rest 1
	note C#, 5
	rest 1
	note D#, 5
	rest 1
	note B_, 2
	rest 2
	note G#, 16
	note G#, 2
	rest 2
	volume_envelope 8, -7
	note G#, 2
	rest 2
	volume_envelope 15, -7
	note A_, 2
	rest 2
	volume_envelope 8, -7
	note A_, 2
	rest 2
	octave 4
	volume_envelope 15, -7
	note B_, 12
	octave 5
	note C#, 4
	octave 4
	note E_, 6
	note F#, 6
	note G#, 4
	note B_, 12
	octave 5
	note C#, 4
	octave 4
	note E_, 6
	octave 5
	note D#, 6
	octave 4
	note B_, 4
	note G#, 16
	note G#, 12
	note A_, 2
	note G#, 2
	note F#, 16
	octave 3
	note E_, 2
	rest 2
	volume_envelope 8, -7
	note E_, 2
	rest 2
	volume_envelope 15, -7
	note D#, 2
	rest 2
	volume_envelope 8, -7
	note D#, 2
	rest 2
	volume_envelope 15, -7
	duty_cycle 1
	note C#, 2
	note E_, 1
	rest 1
	note D#, 2
	note E_, 1
	rest 1
	note C#, 2
	rest 4
	note C#, 2
	rest 2
	note D#, 1
	rest 1
	note E_, 2
	note B_, 1
	rest 1
	note G#, 2
	rest 6
	note C#, 2
	note E_, 1
	rest 1
	note D#, 2
	note E_, 1
	rest 1
	note C#, 2
	rest 4
	note C#, 2
	rest 2
	note D#, 1
	rest 1
	note E_, 2
	note B_, 1
	rest 1
	note G#, 2
	rest 6
	note C#, 2
	note E_, 1
	rest 1
	note D#, 2
	note E_, 1
	rest 1
	note C#, 2
	rest 4
	note C#, 2
	rest 2
	note D#, 1
	rest 1
	note E_, 2
	note B_, 1
	rest 1
	note G#, 2
	rest 6
	octave 2
	note B_, 6
	octave 3
	note F#, 6
	note E_, 4
	note D#, 2
	note C#, 4
	octave 2
	note B_, 6
	octave 3
	note D#, 4
	note C#, 2
	note E_, 1
	rest 1
	note D#, 2
	note E_, 1
	rest 1
	note C#, 2
	rest 4
	note C#, 2
	rest 2
	note D#, 1
	rest 1
	note E_, 2
	note B_, 1
	rest 1
	note G#, 2
	rest 6
	note C#, 2
	note E_, 1
	rest 1
	note D#, 2
	note E_, 1
	rest 1
	note C#, 2
	rest 4
	note C#, 2
	rest 2
	note D#, 1
	rest 1
	note E_, 2
	note B_, 1
	rest 1
	note G#, 2
	rest 6
	note C#, 2
	note E_, 1
	rest 1
	note D#, 2
	note E_, 1
	rest 1
	note C#, 2
	rest 4
	note C#, 2
	rest 2
	note D#, 1
	rest 1
	note E_, 2
	note B_, 1
	rest 1
	note G#, 2
	rest 6
	octave 2
	note B_, 6
	octave 3
	note F#, 6
	note E_, 4
	note D#, 2
	note C#, 4
	octave 2
	note B_, 6
	octave 3
	note D#, 4
	note C#, 2
	note E_, 1
	rest 1
	note D#, 2
	note E_, 1
	rest 1
	note C#, 2
	rest 4
	note C#, 2
	rest 2
	note D#, 1
	rest 1
	note E_, 2
	note B_, 1
	rest 1
	note G#, 2
	rest 6
	note C#, 2
	note E_, 1
	rest 1
	note D#, 2
	note E_, 1
	rest 1
	note C#, 2
	rest 4
	note C#, 2
	rest 2
	note D#, 1
	rest 1
	note E_, 2
	note B_, 1
	rest 1
	note G#, 2
	rest 6
	note C#, 2
	note E_, 1
	rest 1
	note D#, 2
	note E_, 1
	rest 1
	note C#, 2
	rest 4
	note C#, 2
	rest 2
	note D#, 1
	rest 1
	note E_, 2
	note B_, 1
	rest 1
	note G#, 2
	rest 6
	octave 2
	note B_, 6
	octave 3
	note F#, 6
	note E_, 4
	note D#, 2
	note C#, 4
	octave 2
	note B_, 6
	octave 3
	note D#, 4
	note C#, 2
	note E_, 1
	rest 1
	note D#, 2
	note E_, 1
	rest 1
	note C#, 2
	rest 4
	note C#, 2
	rest 2
	note D#, 1
	rest 1
	note E_, 2
	note B_, 1
	rest 1
	note G#, 2
	rest 6
	note C#, 2
	note E_, 1
	rest 1
	note D#, 2
	note E_, 1
	rest 1
	note C#, 2
	rest 4
	note C#, 2
	rest 2
	note D#, 1
	rest 1
	note E_, 2
	note B_, 1
	rest 1
	note G#, 2
	rest 6
	note C#, 2
	note E_, 1
	rest 1
	note D#, 2
	note E_, 1
	rest 1
	note C#, 2
	rest 4
	note C#, 2
	rest 2
	note D#, 1
	rest 1
	note E_, 2
	note B_, 1
	rest 1
	note G#, 2
	rest 6
	note C_, 6
	note F#, 6
	note E_, 4
	note D#, 2
	note C#, 4
	note C_, 6
	note D#, 4
	note C#, 2
	note E_, 1
	rest 1
	note D#, 2
	note E_, 1
	rest 1
	note C#, 2
	rest 4
	note C#, 2
	rest 2
	note D#, 1
	rest 1
	note E_, 2
	note B_, 1
	rest 1
	note G#, 2
	rest 6
	note C#, 2
	note E_, 1
	rest 1
	note D#, 2
	note E_, 1
	rest 1
	note C#, 2
	rest 4
	note C#, 2
	rest 2
	note D#, 1
	rest 1
	note E_, 2
	note B_, 1
	rest 1
	note G#, 2
	rest 6
	note C#, 2
	note E_, 1
	rest 1
	note D#, 2
	note E_, 1
	rest 1
	note C#, 2
	rest 4
	note C#, 2
	rest 2
	note D#, 1
	rest 1
	note E_, 2
	note B_, 1
	rest 1
	note G#, 2
	rest 6
	octave 2
	note B_, 6
	octave 3
	note F#, 6
	note E_, 4
	note D#, 2
	note C#, 4
	octave 2
	note B_, 6
	octave 3
	note D#, 4
	note C#, 2
	note E_, 1
	rest 1
	note D#, 2
	note E_, 1
	rest 1
	note C#, 2
	rest 4
	note C#, 2
	rest 2
	note D#, 1
	rest 1
	note E_, 2
	note B_, 1
	rest 1
	note G#, 2
	rest 6
	note C#, 2
	note E_, 1
	rest 1
	note D#, 2
	note E_, 1
	rest 1
	note C#, 2
	rest 4
	note C#, 2
	rest 2
	note D#, 1
	rest 1
	note E_, 2
	note B_, 1
	rest 1
	note G#, 2
	rest 6
	note C#, 2
	note E_, 1
	rest 1
	note D#, 2
	note E_, 1
	rest 1
	note C#, 2
	rest 4
	note C#, 2
	rest 2
	note D#, 1
	rest 1
	note E_, 2
	note B_, 1
	rest 1
	note G#, 2
	rest 6
	note C_, 6
	note F#, 6
	note E_, 4
	note D#, 2
	note C#, 4
	note C_, 6
	note D#, 4
	octave 4
	vibrato 8, 12, 1
	note C#, 16
	note C#, 8
	octave 3
	note G#, 2
	note G#, 2
	note B_, 2
	note B_, 2
	octave 4
	note C#, 12
	note E_, 4
	note F#, 2
	note E_, 4
	note D#, 6
	note E_, 4
	note C#, 16
	octave 3
	duty_cycle 2
	vibrato 16, 7, 1
	note G#, 2
	note G#, 2
	note G#, 2
	note B_, 2
	note B_, 2
	note B_, 2
	octave 4
	note E_, 2
	note E_, 2
	note D#, 16
	duty_cycle 3
	note C#, 6
	note E_, 6
	note F#, 4
	note G#, 16
	note G#, 8
	note E_, 2
	rest 2
	note F#, 2
	rest 2
	note G#, 12
	note F#, 4
	note E_, 2
	rest 2
	note F#, 2
	note D#, 2
	rest 4
	octave 3
	note B_, 2
	rest 2
	octave 4
	note C#, 16
	note C#, 8
	note E_, 2
	rest 2
	note F#, 2
	rest 2
	note G#, 12
	note F#, 4
	note E_, 2
	rest 2
	note F#, 2
	note D#, 2
	rest 4
	note B_, 2
	rest 2
	note G#, 16
	note G#, 8
	note E_, 2
	rest 2
	note F#, 2
	rest 2
	note G#, 12
	note F#, 4
	note E_, 2
	rest 2
	note F#, 2
	note D#, 6
	octave 3
	note B_, 2
	rest 2
	octave 4
	note C#, 16
	note C#, 16
	note D#, 16
	note D#, 16
	rest 16
	rest 16
	rest 16
	rest 16
	rest 16
	rest 16
	rest 16
	rest 16
	volume_envelope 12, -7
	duty_cycle 1
	note F_, 2
	note E_, 2
	note D_, 2
	note C_, 2
	note D_, 4
	octave 3
	note A_, 4
	note B_, 6
	note G_, 4
	rest 2
	note D_, 2
	note E_, 2
	note F_, 6
	note G_, 4
	note D_, 2
	octave 4
	note C_, 4
	octave 3
	note A_, 15
	rest 1
	octave 4
	note F_, 2
	note E_, 2
	note D_, 2
	note C_, 2
	note D_, 4
	octave 3
	note A_, 4
	note B_, 6
	note G_, 4
	rest 2
	note D_, 2
	note E_, 2
	note F_, 6
	note E_, 4
	note C_, 2
	note E_, 4
	note D_, 15
	rest 1
	octave 4
	note G_, 2
	note F_, 2
	note D#, 2
	note D_, 2
	note D#, 2
	note D_, 2
	note C_, 2
	note D#, 2
	note D_, 6
	octave 3
	note A_, 6
	note A_, 2
	octave 4
	note D_, 2
	note G_, 2
	note F_, 2
	note D#, 2
	note D_, 2
	note C_, 2
	octave 3
	note A#, 1
	rest 1
	octave 4
	note A_, 2
	note G_, 2
	note F_, 4
	note G_, 4
	note A_, 6
	note B_, 2
	octave 5
	note C_, 2
	octave 4
	note B_, 2
	note A_, 2
	note G_, 2
	note A_, 2
	note G_, 2
	note A_, 2
	note B_, 2
	note A_, 6
	note D_, 6
	note D_, 2
	note E_, 2
	note F_, 6
	note G_, 6
	note A#, 1
	rest 3
	note A_, 1
	rest 3
	note E_, 1
	rest 3
	note C#, 1
	rest 3
	octave 3
	note A_, 1
	rest 3
	octave 4
	note G_, 2
	note F_, 2
	note D#, 2
	note D_, 2
	note D#, 2
	note D_, 2
	note C_, 2
	note D#, 2
	note D_, 6
	octave 3
	note A_, 6
	note A_, 2
	octave 4
	note D_, 2
	note G_, 2
	note F_, 2
	note D#, 2
	note D_, 2
	note C_, 2
	octave 3
	note A#, 1
	rest 1
	octave 4
	note A_, 2
	note G_, 2
	note F_, 4
	note G_, 4
	note A_, 6
	note B_, 2
	octave 5
	note C_, 2
	octave 4
	note B_, 2
	note A_, 2
	note G_, 2
	note A_, 2
	note G_, 2
	note A_, 2
	note B_, 2
	note A_, 6
	note D_, 6
	note D_, 2
	note E_, 2
	note F_, 6
	note E_, 6
	note C_, 4
	note D_, 11
	rest 1
	note D_, 2
	note E_, 2
	note F_, 6
	note E_, 6
	note C_, 4
	note D_, 11
	rest 1
	note D_, 2
	note E_, 2
	note F_, 6
	note E_, 6
	note C_, 4
	note D_, 11
	rest 1
	note D_, 2
	note E_, 2
	note F_, 6
	note E_, 6
	note C_, 4
	note D_, 11
	rest 1
	octave 3
	note E_, 4
	volume_envelope 15, -7
	note F_, 4
	rest 2
	note D_, 4
	rest 2
	note D_, 2
	rest 2
	note D_, 4
	rest 2
	octave 2
	note B_, 4
	rest 2
	octave 3
	note D_, 2
	rest 2
	note F_, 4
	rest 2
	note D_, 4
	rest 2
	note D_, 2
	rest 2
	note D_, 4
	rest 2
	octave 2
	note B_, 4
	rest 2
	octave 3
	note D_, 2
	rest 2
	note F_, 8
	note_type 1, 15, -7
	rest 10
	note_type 6, 15, -7
	rest 2
	note_type 1, 15, -7
	rest 3
	note_type 6, 15, -7
	rest 4
	note_type 1, 15, -7
	rest 1
	note_type 6, 15, -7
	sound_jump .mainloop

Music_Asgore_Ch2:
	note_type 6, 15, -1
	duty_cycle 3
.mainloop:
	duty_cycle 3
	octave 2
	volume_envelope 14, -1
	note C#, 3
	rest 5
	note D#, 3
	rest 5
	note A_, 2
	note A_, 1
	rest 1
	note C#, 2
	note A_, 1
	rest 1
	note A_, 2
	note D#, 1
	rest 1
	note A_, 2
	note E_, 1
	rest 1
	note A_, 2
	note A_, 1
	rest 1
	note F#, 2
	note A_, 1
	rest 1
	note A_, 2
	note E_, 1
	rest 1
	note A_, 2
	note A_, 1
	rest 1
	note A_, 2
	note A_, 1
	rest 1
	note D#, 2
	note A_, 1
	rest 1
	note A_, 2
	note E_, 1
	rest 1
	note A_, 2
	note E_, 1
	rest 1
	note A_, 2
	note A_, 1
	rest 1
	note E_, 2
	note A_, 1
	rest 1
	note B_, 2
	note D#, 1
	rest 1
	note F#, 2
	note B_, 1
	rest 1
	note C#, 2
	note C#, 1
	rest 1
	note G#, 2
	note C#, 1
	rest 1
	note C#, 2
	note F#, 1
	rest 1
	note E_, 2
	note B_, 1
	rest 1
	note C#, 2
	note C#, 1
	rest 1
	note G#, 2
	note C#, 1
	rest 1
	note C#, 2
	note F#, 1
	rest 1
	note E_, 2
	note B_, 1
	rest 1
	note C#, 2
	note C#, 1
	rest 1
	note G#, 2
	note C#, 1
	rest 1
	note C#, 2
	note F#, 1
	rest 1
	note E_, 2
	note B_, 1
	rest 1
	octave 3
	volume_envelope 8, -1
	note C#, 2
	rest 2
	volume_envelope 4, -1
	note C#, 2
	rest 2
	volume_envelope 8, -1
	note D#, 2
	rest 2
	volume_envelope 4, -1
	note D#, 2
	rest 2
	note E_, 12
	note E_, 4
	octave 2
	note G#, 6
	note B_, 6
	octave 3
	note C#, 4
	note E_, 12
	note E_, 4
	octave 2
	note F#, 6
	octave 3
	note F#, 6
	note D#, 4
	note E_, 16
	note E_, 12
	note F#, 2
	note E_, 2
	note D#, 16
	rest 16
	octave 2
	volume_envelope 15, -1
	note A_, 2
	note A_, 1
	rest 1
	note C#, 2
	note A_, 1
	rest 1
	note A_, 2
	note D#, 1
	rest 1
	note A_, 2
	note E_, 1
	rest 1
	note A_, 2
	note A_, 1
	rest 1
	note F#, 2
	note A_, 1
	rest 1
	note A_, 2
	note E_, 1
	rest 1
	note A_, 2
	note A_, 1
	rest 1
	note A_, 2
	note A_, 1
	rest 1
	note D#, 2
	note A_, 1
	rest 1
	note A_, 2
	note E_, 1
	rest 1
	note A_, 2
	note E_, 1
	rest 1
	note A_, 2
	note A_, 1
	rest 1
	note E_, 2
	note A_, 1
	rest 1
	note B_, 2
	note D#, 1
	rest 1
	note F#, 2
	note B_, 1
	rest 1
	note C#, 2
	note C#, 1
	rest 1
	note G#, 2
	note C#, 1
	rest 1
	note C#, 2
	note F#, 1
	rest 1
	note E_, 2
	note B_, 1
	rest 1
	note C#, 2
	note C#, 1
	rest 1
	note G#, 2
	note C#, 1
	rest 1
	note C#, 2
	note F#, 1
	rest 1
	note E_, 2
	note B_, 1
	rest 1
	note C#, 2
	note C#, 1
	rest 1
	note G#, 2
	note C#, 1
	rest 1
	note C#, 2
	note F#, 1
	rest 1
	note E_, 2
	note B_, 1
	rest 1
	octave 3
	volume_envelope 8, -1
	note C#, 2
	rest 2
	volume_envelope 4, -1
	note C#, 2
	rest 2
	volume_envelope 8, -1
	note D#, 2
	rest 2
	volume_envelope 4, -1
	note D#, 2
	rest 2
	note E_, 12
	note E_, 4
	octave 2
	note G#, 6
	note B_, 6
	octave 3
	note C#, 4
	note E_, 12
	note E_, 4
	octave 2
	note F#, 6
	octave 3
	note F#, 6
	note D#, 4
	note E_, 16
	note E_, 12
	note F#, 2
	note E_, 2
	note D#, 16
	rest 16
	rest 16
	rest 16
	rest 16
	rest 16
	rest 16
	rest 16
	rest 16
	rest 16
	volume_envelope 15, -1
	duty_cycle 2
	octave 4
	note E_, 2
	rest 4
	note E_, 2
	rest 6
	note E_, 2
	rest 4
	note E_, 2
	rest 2
	note E_, 2
	rest 2
	note F#, 4
	note E_, 2
	rest 4
	note E_, 2
	rest 6
	note E_, 2
	rest 4
	note E_, 2
	rest 2
	note E_, 2
	rest 2
	note F#, 4
	note G#, 2
	rest 4
	note G#, 2
	rest 6
	note G#, 2
	rest 4
	note G#, 2
	rest 2
	note G#, 2
	rest 2
	note F#, 4
	rest 16
	rest 16
	duty_cycle 1
	note C#, 2
	note E_, 2
	note D#, 2
	note E_, 2
	note C#, 4
	rest 2
	note C#, 4
	note D#, 2
	note E_, 2
	note B_, 2
	note G#, 4
	rest 4
	note C#, 2
	note E_, 2
	note D#, 2
	note E_, 2
	note C#, 4
	rest 2
	note C#, 4
	note D#, 2
	note E_, 2
	note B_, 2
	note G#, 4
	rest 4
	note C#, 2
	note E_, 2
	note D#, 2
	note E_, 2
	note C#, 4
	rest 2
	note C#, 4
	note D#, 2
	note E_, 2
	note B_, 2
	note G#, 4
	rest 4
	octave 3
	note B_, 6
	octave 4
	note F#, 6
	note E_, 4
	note D#, 2
	note C#, 4
	octave 3
	note B_, 6
	octave 4
	note D#, 4
	note C#, 2
	note E_, 2
	note D#, 2
	note E_, 2
	note C#, 4
	rest 2
	note C#, 4
	note D#, 2
	note E_, 2
	note B_, 2
	note G#, 4
	rest 4
	note C#, 2
	note E_, 2
	note D#, 2
	note E_, 2
	note C#, 4
	rest 2
	note C#, 4
	note D#, 2
	note E_, 2
	note B_, 2
	note G#, 4
	rest 4
	note C#, 2
	note E_, 2
	note D#, 2
	note E_, 2
	note C#, 4
	rest 2
	note C#, 4
	note D#, 2
	note E_, 2
	note B_, 2
	note G#, 4
	rest 4
	note C_, 6
	note F#, 6
	note E_, 4
	note D#, 2
	note C#, 4
	note C_, 6
	note D#, 4
	note C#, 2
	note E_, 2
	note D#, 2
	note E_, 2
	note C#, 4
	rest 2
	note C#, 4
	note D#, 2
	note E_, 2
	note B_, 2
	note G#, 4
	rest 4
	note C#, 2
	note E_, 2
	note D#, 2
	note E_, 2
	note C#, 4
	rest 2
	note C#, 4
	note D#, 2
	note E_, 2
	note B_, 2
	note G#, 4
	rest 4
	note C#, 2
	note E_, 2
	note D#, 2
	note E_, 2
	note C#, 4
	rest 2
	note C#, 4
	note D#, 2
	note E_, 2
	note B_, 2
	note G#, 4
	rest 4
	octave 3
	note B_, 6
	octave 4
	note F#, 6
	note E_, 4
	note D#, 2
	note C#, 4
	octave 3
	note B_, 6
	octave 4
	note D#, 4
	note C#, 2
	note E_, 2
	note D#, 2
	note E_, 2
	note C#, 4
	rest 2
	note C#, 4
	note D#, 2
	note E_, 2
	note B_, 2
	note G#, 4
	rest 4
	note C#, 2
	note E_, 2
	note D#, 2
	note E_, 2
	note C#, 4
	rest 2
	note C#, 4
	note D#, 2
	note E_, 2
	note B_, 2
	note G#, 4
	rest 4
	note C#, 2
	note E_, 2
	note D#, 2
	note E_, 2
	note C#, 4
	rest 2
	note C#, 4
	note D#, 2
	note E_, 2
	note B_, 2
	note G#, 4
	rest 4
	note C_, 6
	note F#, 6
	note E_, 4
	note D#, 2
	note C#, 4
	note C_, 6
	note D#, 4
	octave 3
	volume_envelope 8, -1
	note G#, 16
	note G#, 8
	note E_, 2
	note E_, 2
	note F#, 2
	note F#, 2
	note G#, 12
	note B_, 4
	octave 4
	note C#, 2
	octave 3
	note B_, 4
	note A#, 6
	note B_, 4
	note G#, 15
	rest 16
	rest 16
	rest 1
	volume_envelope 15, -1
	note E_, 6
	note G#, 6
	note B_, 4
	octave 4
	note C#, 16
	note C#, 8
	octave 3
	note G#, 2
	rest 2
	note B_, 2
	rest 2
	octave 4
	note C#, 12
	octave 3
	note B_, 4
	note G#, 2
	rest 2
	note B_, 2
	note F#, 2
	rest 8
	note E_, 16
	note E_, 8
	note G#, 2
	rest 2
	note B_, 2
	rest 2
	octave 4
	note C#, 12
	octave 3
	note B_, 4
	note G#, 2
	rest 2
	note B_, 2
	note F#, 2
	rest 4
	octave 4
	note D#, 2
	rest 2
	note C#, 16
	note C#, 8
	octave 3
	note G#, 2
	rest 2
	note B_, 2
	rest 2
	octave 4
	note C#, 12
	octave 3
	note B_, 4
	note G#, 2
	rest 2
	note B_, 2
	note F#, 2
	rest 8
	note A_, 16
	note A_, 16
	note B_, 16
	note B_, 16
	octave 4
	duty_cycle 2
	volume_envelope 12, 3
	note F_, 2
	note E_, 2
	note D_, 2
	note C_, 2
	note D_, 4
	octave 3
	note A_, 4
	note B_, 6
	note G_, 4
	rest 2
	note D_, 2
	note E_, 2
	note F_, 6
	note G_, 4
	note D_, 2
	octave 4
	note C_, 4
	octave 3
	note A_, 15
	rest 1
	octave 4
	note F_, 2
	note E_, 2
	note D_, 2
	note C_, 2
	note D_, 4
	octave 3
	note A_, 4
	note B_, 6
	note G_, 4
	rest 2
	note D_, 2
	note E_, 2
	note F_, 6
	note E_, 4
	note C_, 2
	note E_, 4
	note D_, 15
	rest 1
	octave 4
	volume_envelope 12, 7
	note A_, 2
	note G_, 2
	note F_, 2
	note E_, 2
	note F_, 4
	note D_, 4
	note D_, 6
	octave 3
	note B_, 4
	rest 2
	note G_, 2
	note A_, 2
	note A#, 6
	octave 4
	note C_, 3
	rest 3
	note E_, 4
	note F_, 15
	rest 1
	note A_, 2
	note G_, 2
	note F_, 2
	note E_, 2
	note F_, 4
	note D_, 4
	note D_, 6
	octave 3
	note B_, 4
	rest 2
	note G_, 2
	note A_, 2
	note A#, 6
	octave 4
	note C_, 3
	rest 3
	note C_, 4
	octave 3
	note A_, 15
	rest 1
	octave 2
	note D#, 2
	note A#, 2
	note D#, 2
	note F_, 4
	note D#, 2
	note C_, 2
	note D#, 2
	note D_, 2
	octave 3
	note D_, 2
	octave 2
	note A_, 2
	note A_, 2
	note F_, 2
	note F_, 2
	note A_, 2
	note A_, 2
	note D#, 2
	note A#, 2
	note D#, 2
	note F_, 4
	note D#, 2
	note C_, 2
	note D#, 2
	note D_, 2
	octave 3
	note D_, 2
	octave 2
	note E_, 2
	octave 3
	note E_, 2
	octave 2
	note F_, 2
	octave 3
	note F_, 2
	note C_, 2
	octave 2
	note F_, 2
	note G_, 2
	note D_, 2
	note G_, 2
	octave 3
	note C_, 4
	octave 2
	note B_, 2
	note G_, 2
	note F_, 2
	note D_, 2
	note A_, 2
	note E_, 2
	note A_, 2
	note F_, 2
	note A_, 2
	note G_, 2
	note A_, 2
	note A#, 2
	note D_, 2
	note F_, 2
	note A#, 4
	note A_, 2
	note F_, 2
	note D_, 2
	note C#, 2
	rest 2
	note A_, 2
	rest 2
	note E_, 2
	rest 2
	note A_, 2
	rest 2
	note D#, 2
	note A#, 2
	note D#, 2
	note F_, 4
	note D#, 2
	note C_, 2
	note D#, 2
	note D_, 2
	octave 3
	note D_, 2
	octave 2
	note A_, 2
	note A_, 2
	note F_, 2
	note F_, 2
	note A_, 2
	note A_, 2
	note D#, 2
	note A#, 2
	note D#, 2
	note F_, 4
	note D#, 2
	note C_, 2
	note D#, 2
	note D_, 2
	octave 3
	note D_, 2
	octave 2
	note E_, 2
	octave 3
	note E_, 2
	octave 2
	note F_, 2
	octave 3
	note F_, 2
	note C_, 2
	octave 2
	note F_, 2
	note G_, 2
	note D_, 2
	note G_, 2
	octave 3
	note C_, 4
	octave 2
	note B_, 2
	note G_, 2
	note F_, 2
	note D_, 2
	note A_, 2
	note E_, 2
	note A_, 2
	note F_, 2
	note A_, 2
	note G_, 2
	note A_, 2
	note A#, 2
	note D_, 2
	note F_, 2
	note A#, 4
	note A_, 2
	note F_, 2
	note D_, 2
	note A#, 2
	note D_, 2
	note F_, 2
	note A#, 4
	note A_, 2
	note F_, 2
	note D_, 2
	note C_, 2
	note E_, 2
	note G_, 2
	octave 3
	note C_, 4
	octave 2
	note G_, 2
	note E_, 2
	note D_, 2
	note C_, 2
	note E_, 2
	note G_, 2
	octave 3
	note C_, 4
	octave 2
	note G_, 2
	note E_, 2
	note D_, 2
	note A#, 2
	note D_, 2
	note F_, 2
	note A#, 4
	note A_, 2
	note F_, 2
	note D_, 2
	note A#, 2
	note D_, 2
	note F_, 2
	note A#, 4
	note A_, 2
	note F_, 2
	note D_, 2
	note C_, 2
	note E_, 2
	note G_, 2
	octave 3
	note C_, 4
	octave 2
	note G_, 2
	note E_, 2
	note D_, 2
	note C_, 2
	note E_, 2
	note G_, 2
	octave 3
	note C_, 4
	octave 2
	note G_, 2
	octave 4
	volume_envelope 12, -7
	note C_, 4
	volume_envelope 15, -1
	note D_, 4
	rest 2
	octave 3
	note A_, 4
	rest 2
	note A_, 2
	rest 2
	note B_, 4
	rest 2
	note G_, 4
	rest 2
	note A_, 2
	rest 2
	octave 4
	note D_, 4
	rest 2
	octave 3
	note A_, 4
	rest 2
	octave 4
	note C_, 2
	rest 2
	octave 3
	note B_, 4
	rest 2
	note G_, 4
	rest 2
	note A_, 2
	rest 2
	octave 4
	note D_, 8
	note_type 1, 15, -1
	rest 10
	note_type 6, 15, -1
	rest 2
	note_type 1, 15, -1
	rest 3
	note_type 6, 15, -1
	rest 4
	note_type 1, 15, -1
	rest 1
	note_type 6, 15, -1
	sound_jump .mainloop

Music_Asgore_Ch3:
	note_type 6, 1, 0
.mainloop:
	rest 16
	octave 3
	volume_envelope 1, 12
	note A_, 2
	note A_, 1
	rest 1
	octave 4
	note C#, 2
	octave 3
	note A_, 1
	rest 1
	note A_, 2
	octave 4
	note D#, 1
	rest 1
	octave 3
	note A_, 2
	octave 4
	note E_, 1
	rest 1
	octave 3
	note A_, 2
	note A_, 1
	rest 1
	octave 4
	note F#, 2
	octave 3
	note A_, 1
	rest 1
	note A_, 2
	octave 4
	note E_, 1
	rest 1
	octave 3
	note A_, 2
	note A_, 1
	rest 1
	note A_, 2
	note A_, 1
	rest 1
	octave 4
	note D#, 2
	octave 3
	note A_, 1
	rest 1
	note A_, 2
	octave 4
	note E_, 1
	rest 1
	octave 3
	note A_, 2
	octave 4
	note E_, 1
	rest 1
	octave 3
	note A_, 2
	note A_, 1
	rest 1
	octave 4
	note E_, 2
	octave 3
	note A_, 1
	rest 1
	note B_, 2
	octave 4
	note D#, 1
	rest 1
	note F#, 2
	octave 3
	note B_, 1
	rest 1
	octave 4
	note C#, 2
	note C#, 1
	rest 1
	note G#, 2
	note C#, 1
	rest 1
	note C#, 2
	note F#, 1
	rest 1
	note E_, 2
	octave 3
	note B_, 1
	rest 1
	octave 4
	note C#, 2
	note C#, 1
	rest 1
	note G#, 2
	note C#, 1
	rest 1
	note C#, 2
	note F#, 1
	rest 1
	note E_, 2
	octave 3
	note B_, 1
	rest 1
	octave 4
	note C#, 2
	note C#, 1
	rest 1
	note G#, 2
	note C#, 1
	rest 1
	note C#, 2
	note F#, 1
	rest 1
	note E_, 2
	octave 3
	note B_, 1
	rest 1
	octave 4
	note C#, 1
	rest 3
	note C#, 1
	rest 3
	octave 3
	note B_, 1
	rest 3
	note B_, 1
	rest 3
	note F#, 2
	note F#, 2
	octave 4
	note C#, 1
	rest 1
	octave 3
	note F#, 2
	note F#, 1
	rest 1
	note F#, 2
	octave 4
	note F#, 1
	rest 1
	note G#, 2
	octave 3
	note F#, 1
	rest 1
	note F#, 2
	octave 4
	note C#, 1
	rest 1
	octave 3
	note F#, 2
	note F#, 1
	rest 1
	note F#, 2
	octave 4
	note F#, 1
	rest 1
	note G#, 2
	octave 3
	note G#, 2
	octave 4
	note E_, 1
	rest 1
	octave 3
	note G#, 2
	octave 4
	note F#, 1
	rest 1
	note D#, 2
	note G#, 1
	rest 1
	note B_, 2
	octave 3
	note G#, 1
	rest 1
	note G#, 2
	octave 4
	note E_, 1
	rest 1
	octave 3
	note G#, 2
	octave 4
	note F#, 1
	rest 1
	note D#, 2
	note G#, 1
	rest 1
	note B_, 2
	octave 3
	note G#, 1
	rest 1
	note A_, 2
	rest 2
	octave 4
	note E_, 2
	rest 2
	note F#, 2
	rest 2
	note E_, 2
	rest 2
	octave 3
	note A_, 2
	rest 2
	octave 4
	note E_, 2
	rest 2
	note F#, 2
	rest 2
	note E_, 2
	rest 2
	octave 3
	note A_, 2
	rest 2
	octave 4
	note E_, 2
	rest 2
	note F#, 2
	rest 2
	note E_, 2
	rest 16
	rest 2
	octave 3
	note A_, 2
	note A_, 1
	rest 1
	octave 4
	note C#, 2
	octave 3
	note A_, 1
	rest 1
	note A_, 2
	octave 4
	note D#, 1
	rest 1
	octave 3
	note A_, 2
	octave 4
	note E_, 1
	rest 1
	octave 3
	note A_, 2
	note A_, 1
	rest 1
	octave 4
	note F#, 2
	octave 3
	note A_, 1
	rest 1
	note A_, 2
	octave 4
	note E_, 1
	rest 1
	octave 3
	note A_, 2
	note A_, 1
	rest 1
	note A_, 2
	note A_, 1
	rest 1
	octave 4
	note D#, 2
	octave 3
	note A_, 1
	rest 1
	note A_, 2
	octave 4
	note E_, 1
	rest 1
	octave 3
	note A_, 2
	octave 4
	note E_, 1
	rest 1
	octave 3
	note A_, 2
	note A_, 1
	rest 1
	octave 4
	note E_, 2
	octave 3
	note A_, 1
	rest 1
	note B_, 2
	octave 4
	note D#, 1
	rest 1
	note F#, 2
	octave 3
	note B_, 1
	rest 1
	octave 4
	note C#, 2
	note C#, 1
	rest 1
	note G#, 2
	note C#, 1
	rest 1
	note C#, 2
	note F#, 1
	rest 1
	note E_, 2
	octave 3
	note B_, 1
	rest 1
	octave 4
	note C#, 2
	note C#, 1
	rest 1
	note G#, 2
	note C#, 1
	rest 1
	note C#, 2
	note F#, 1
	rest 1
	note E_, 2
	octave 3
	note B_, 1
	rest 1
	octave 4
	note C#, 2
	note C#, 1
	rest 1
	note G#, 2
	note C#, 1
	rest 1
	note C#, 2
	note F#, 1
	rest 1
	note E_, 2
	octave 3
	note B_, 1
	rest 1
	octave 4
	note C#, 1
	rest 3
	note C#, 1
	rest 3
	octave 3
	note B_, 1
	rest 3
	note B_, 1
	rest 3
	note F#, 2
	note F#, 2
	octave 4
	note C#, 1
	rest 1
	octave 3
	note F#, 2
	note F#, 1
	rest 1
	note F#, 2
	octave 4
	note F#, 1
	rest 1
	note G#, 2
	octave 3
	note F#, 1
	rest 1
	note F#, 2
	octave 4
	note C#, 1
	rest 1
	octave 3
	note F#, 2
	note F#, 1
	rest 1
	note F#, 2
	octave 4
	note F#, 1
	rest 1
	note G#, 2
	octave 3
	note G#, 2
	octave 4
	note E_, 1
	rest 1
	octave 3
	note G#, 2
	octave 4
	note F#, 1
	rest 1
	note D#, 2
	note G#, 1
	rest 1
	note B_, 2
	octave 3
	note G#, 1
	rest 1
	note G#, 2
	octave 4
	note E_, 1
	rest 1
	octave 3
	note G#, 2
	octave 4
	note F#, 1
	rest 1
	note D#, 2
	note G#, 1
	rest 1
	note B_, 2
	octave 3
	note G#, 1
	rest 1
	note A_, 2
	rest 2
	octave 4
	note E_, 2
	rest 2
	note F#, 2
	rest 2
	note E_, 2
	rest 2
	octave 3
	note A_, 2
	rest 2
	octave 4
	note E_, 2
	rest 2
	note F#, 2
	rest 2
	note E_, 2
	rest 2
	octave 3
	note A_, 2
	rest 2
	octave 4
	note E_, 2
	rest 2
	note F#, 2
	rest 2
	note E_, 2
	rest 16
	rest 2
	octave 3
	note E_, 16
	note E_, 14
	rest 2
	note F#, 16
	note F#, 14
	rest 2
	note C#, 16
	note C#, 14
	rest 2
	note D#, 16
	note D#, 14
	rest 2
	note E_, 16
	note E_, 14
	rest 2
	note F#, 16
	note F#, 14
	rest 2
	note C#, 16
	note C#, 14
	rest 2
	note D#, 16
	note D#, 14
	rest 2
	note E_, 8
	note E_, 6
	note E_, 2
	rest 8
	note E_, 8
	note F#, 8
	note F#, 6
	note F#, 2
	rest 8
	note F#, 8
	note C#, 8
	note C#, 6
	note C#, 2
	rest 8
	note C#, 8
	note D#, 16
	note D#, 16
	note E_, 8
	note E_, 6
	note E_, 2
	rest 8
	note E_, 8
	note F#, 8
	note F#, 6
	note F#, 4
	rest 6
	note F#, 8
	note C#, 8
	note C#, 6
	note C#, 2
	rest 8
	note C#, 8
	note C#, 16
	note D#, 16
	note E_, 8
	note E_, 6
	note E_, 2
	rest 8
	note E_, 8
	note F#, 8
	note F#, 6
	note F#, 2
	rest 8
	note F#, 8
	note C#, 8
	note C#, 6
	note C#, 2
	rest 8
	note C#, 8
	note C#, 16
	note D#, 16
	note E_, 8
	note E_, 6
	note E_, 2
	rest 8
	note E_, 8
	note F#, 8
	note F#, 6
	note F#, 2
	rest 8
	note F#, 8
	note C#, 8
	note C#, 6
	note C#, 2
	rest 8
	note C#, 8
	octave 2
	note G#, 4
	octave 3
	note C_, 4
	note D#, 4
	note G#, 4
	octave 4
	note C_, 8
	octave 3
	note C_, 8
	note A_, 2
	note A_, 1
	rest 1
	octave 4
	note E_, 2
	octave 3
	note A_, 1
	rest 1
	note A_, 2
	note A_, 1
	rest 1
	octave 4
	note E_, 2
	octave 3
	note A_, 1
	rest 1
	note A_, 2
	note A_, 1
	rest 1
	octave 4
	note E_, 2
	octave 3
	note A_, 1
	rest 1
	note A_, 2
	note A_, 1
	rest 1
	note A_, 2
	octave 4
	note C#, 1
	rest 1
	octave 3
	note B_, 2
	note B_, 1
	rest 1
	octave 4
	note F#, 2
	octave 3
	note B_, 1
	rest 1
	note B_, 2
	note B_, 1
	rest 1
	octave 4
	note F#, 2
	octave 3
	note B_, 1
	rest 1
	note B_, 2
	note B_, 1
	rest 1
	octave 4
	note F#, 2
	octave 3
	note B_, 1
	rest 1
	note B_, 2
	note B_, 1
	rest 1
	note B_, 2
	octave 4
	note D#, 1
	rest 1
	note C#, 2
	note C#, 1
	rest 1
	note G#, 2
	note C#, 1
	rest 1
	note C#, 2
	note C#, 1
	rest 1
	note G#, 2
	note C#, 1
	rest 1
	note C#, 1
	rest 3
	note C#, 2
	note C#, 1
	rest 3
	note C#, 1
	rest 1
	octave 3
	note B_, 1
	rest 3
	note G#, 1
	rest 3
	note G#, 2
	note G#, 1
	rest 3
	note G#, 1
	rest 1
	note G#, 1
	rest 3
	octave 4
	note C#, 2
	rest 4
	note E_, 2
	rest 4
	note G#, 2
	rest 4
	octave 3
	note F#, 2
	octave 4
	note C#, 1
	rest 1
	octave 3
	note F#, 2
	note F#, 1
	rest 1
	note F#, 2
	octave 4
	note C#, 1
	rest 1
	octave 3
	note F#, 2
	note F#, 1
	rest 1
	note F#, 2
	octave 4
	note C#, 1
	rest 1
	octave 3
	note F#, 2
	note F#, 1
	rest 9
	note G#, 2
	octave 4
	note D#, 1
	rest 1
	octave 3
	note G#, 2
	note G#, 1
	rest 1
	note G#, 2
	octave 4
	note D#, 1
	rest 1
	octave 3
	note G#, 2
	note G#, 1
	rest 1
	note G#, 2
	octave 4
	note D#, 1
	rest 1
	octave 3
	note G#, 2
	note G#, 1
	rest 1
	note G#, 2
	octave 4
	note D#, 1
	rest 1
	octave 3
	note G#, 1
	rest 3
	note A_, 2
	octave 4
	note E_, 1
	rest 1
	octave 3
	note A_, 2
	note A_, 1
	rest 1
	note A_, 2
	octave 4
	note E_, 1
	rest 1
	octave 3
	note A_, 2
	note A_, 1
	rest 1
	note A_, 2
	octave 4
	note E_, 1
	rest 1
	octave 3
	note A_, 2
	note A_, 1
	rest 1
	note A_, 2
	octave 4
	note E_, 1
	rest 1
	octave 3
	note A_, 1
	rest 3
	note G#, 2
	octave 4
	note D#, 1
	rest 1
	octave 3
	note G#, 2
	note G#, 1
	rest 1
	note G#, 2
	octave 4
	note D#, 1
	rest 1
	octave 3
	note G#, 2
	note G#, 2
	rest 4
	octave 4
	note C#, 2
	rest 4
	note G_, 2
	rest 4
	octave 3
	note F#, 2
	octave 4
	note C#, 1
	rest 1
	octave 3
	note F#, 2
	note F#, 1
	rest 1
	note F#, 2
	octave 4
	note C#, 1
	rest 1
	octave 3
	note F#, 2
	note F#, 1
	rest 1
	note F#, 2
	octave 4
	note C#, 1
	rest 1
	octave 3
	note F#, 2
	note F#, 1
	rest 9
	note G#, 2
	octave 4
	note D#, 1
	rest 1
	octave 3
	note G#, 2
	note G#, 1
	rest 1
	note G#, 2
	octave 4
	note D#, 1
	rest 1
	octave 3
	note G#, 2
	note G#, 1
	rest 1
	note G#, 2
	octave 4
	note D#, 1
	rest 1
	octave 3
	note G#, 2
	note G#, 1
	rest 1
	note G#, 2
	octave 4
	note D#, 1
	rest 1
	octave 3
	note G#, 1
	rest 3
	note A_, 2
	octave 4
	note E_, 1
	rest 1
	octave 3
	note A_, 2
	note A_, 1
	rest 1
	note A_, 2
	octave 4
	note E_, 1
	rest 1
	octave 3
	note A_, 2
	note A_, 1
	rest 1
	note A_, 2
	octave 4
	note E_, 1
	rest 1
	octave 3
	note A_, 2
	note A_, 1
	rest 1
	note A_, 2
	octave 4
	note E_, 1
	rest 1
	octave 3
	note A_, 1
	rest 3
	volume_envelope 1, 3
	octave 4
	note F#, 2
	note G#, 2
	note F#, 4
	rest 2
	octave 5
	note C#, 4
	octave 4
	note B_, 2
	note G#, 4
	note F#, 4
	note G#, 2
	note B_, 4
	octave 3
	volume_envelope 1, 12
	note C#, 16
	octave 2
	note A#, 16
	note A_, 8
	note B_, 8
	octave 3
	note C#, 16
	note C#, 16
	octave 2
	note A#, 16
	note A_, 8
	note B_, 8
	octave 3
	note C#, 16
	note C#, 16
	octave 2
	note A#, 16
	note A_, 8
	note B_, 8
	octave 3
	note C#, 16
	note C#, 16
	octave 2
	note A#, 16
	note A_, 8
	note B_, 8
	octave 3
	note C#, 16
	note D#, 2
	octave 2
	note A#, 2
	octave 3
	note D#, 2
	note F_, 4
	note D#, 2
	note C_, 2
	note D#, 2
	note D_, 2
	octave 4
	note D_, 2
	octave 2
	note A_, 2
	octave 3
	note A_, 2
	octave 2
	note F_, 2
	octave 3
	note F_, 2
	octave 2
	note A_, 2
	octave 3
	note A_, 2
	note D#, 2
	octave 2
	note A#, 2
	octave 3
	note D#, 2
	note F_, 4
	note D#, 2
	note C_, 2
	note D#, 2
	note D_, 2
	octave 4
	note D_, 2
	octave 3
	note E_, 2
	octave 4
	note E_, 2
	octave 3
	note F_, 2
	octave 4
	note F_, 2
	note C_, 2
	octave 3
	note F_, 2
	note G_, 2
	note D_, 2
	note G_, 2
	octave 4
	note C_, 4
	octave 3
	note B_, 2
	note G_, 2
	note F_, 2
	note D_, 2
	octave 2
	note A_, 2
	octave 3
	note E_, 2
	octave 2
	note A_, 2
	octave 3
	note F_, 2
	octave 2
	note A_, 2
	octave 3
	note G_, 2
	octave 2
	note A_, 2
	note A#, 2
	octave 3
	note D_, 2
	note F_, 2
	note A#, 4
	note A_, 2
	note F_, 2
	note D_, 2
	note C#, 2
	rest 2
	note A_, 2
	rest 2
	note E_, 2
	rest 2
	note A_, 2
	rest 2
	note D#, 2
	octave 2
	note A#, 2
	octave 3
	note D#, 2
	note F_, 4
	note D#, 2
	note C_, 2
	note D#, 2
	note D_, 2
	octave 4
	note D_, 2
	octave 2
	note A_, 2
	octave 3
	note A_, 2
	octave 2
	note F_, 2
	octave 3
	note F_, 2
	octave 2
	note A_, 2
	octave 3
	note A_, 2
	note D#, 2
	octave 2
	note A#, 2
	octave 3
	note D#, 2
	note F_, 4
	note D#, 2
	note C_, 2
	note D#, 2
	note D_, 2
	octave 4
	note D_, 2
	octave 3
	note E_, 2
	octave 4
	note E_, 2
	octave 3
	note F_, 2
	octave 4
	note F_, 2
	note C_, 2
	octave 3
	note F_, 2
	note G_, 2
	note D_, 2
	note G_, 2
	octave 4
	note C_, 4
	octave 3
	note B_, 2
	note G_, 2
	note F_, 2
	note D_, 2
	octave 2
	note A_, 2
	octave 3
	note E_, 2
	octave 2
	note A_, 2
	octave 3
	note F_, 2
	octave 2
	note A_, 2
	octave 3
	note G_, 2
	octave 2
	note A_, 2
	note A#, 2
	octave 3
	note D_, 2
	note F_, 2
	note A#, 4
	note A_, 2
	note F_, 2
	note D_, 2
	octave 2
	note A#, 2
	octave 3
	note D_, 2
	note F_, 2
	note A#, 4
	note A_, 2
	note F_, 2
	note D_, 2
	note C_, 2
	note E_, 2
	note G_, 2
	octave 4
	note C_, 4
	octave 3
	note G_, 2
	note E_, 2
	note D_, 2
	note C_, 2
	note E_, 2
	note G_, 2
	octave 4
	note C_, 4
	octave 3
	note G_, 2
	note E_, 2
	note D_, 2
	octave 2
	note A#, 2
	octave 3
	note D_, 2
	note F_, 2
	note A#, 4
	note A_, 2
	note F_, 2
	note D_, 2
	octave 2
	note A#, 2
	octave 3
	note D_, 2
	note F_, 2
	note A#, 4
	note A_, 2
	note F_, 2
	note D_, 2
	note C_, 2
	note E_, 2
	note G_, 2
	octave 4
	note C_, 4
	octave 3
	note G_, 2
	note E_, 2
	note D_, 2
	note C_, 2
	note E_, 2
	note G_, 2
	octave 4
	note C_, 4
	octave 3
	note G_, 2
	note E_, 2
	note D_, 2
	note D_, 6
	octave 2
	note A_, 5
	rest 1
	note A_, 4
	note B_, 6
	note G_, 6
	note A_, 4
	octave 3
	note D_, 6
	octave 2
	note A_, 5
	rest 1
	octave 3
	note C_, 4
	octave 2
	note B_, 6
	note G_, 6
	note A_, 4
	octave 3
	note D_, 4
	rest 4
	note_type 1, 1, 12
	rest 10
	note_type 6, 1, 12
	rest 2
	note_type 1, 1, 12
	rest 3
	note_type 6, 1, 12
	rest 4
	note_type 1, 1, 12
	rest 1
	note_type 6, 1, 12
	sound_jump .mainloop

Music_Asgore_Ch4:
	toggle_noise 1
	drum_speed 6
.mainloop:
	rest 16
	toggle_noise
	toggle_noise 6
	drum_note 2, 2
	drum_note 11, 2
	drum_note 6, 2
	drum_note 12, 2
	drum_note 2, 2
	drum_note 11, 2
	drum_note 6, 2
	drum_note 12, 2
	drum_note 2, 2
	drum_note 11, 2
	drum_note 6, 2
	drum_note 12, 2
	drum_note 2, 2
	drum_note 11, 2
	drum_note 6, 2
	drum_note 12, 2
	drum_note 2, 2
	drum_note 11, 2
	drum_note 6, 2
	drum_note 12, 2
	drum_note 2, 2
	drum_note 11, 2
	drum_note 6, 2
	drum_note 12, 2
	drum_note 2, 2
	drum_note 11, 2
	drum_note 6, 2
	drum_note 12, 2
	drum_note 2, 2
	drum_note 11, 2
	drum_note 6, 2
	drum_note 12, 2
	drum_note 2, 2
	drum_note 11, 2
	drum_note 6, 2
	drum_note 12, 2
	drum_note 2, 2
	drum_note 11, 2
	drum_note 6, 2
	drum_note 12, 2
	drum_note 2, 2
	drum_note 11, 2
	drum_note 6, 2
	drum_note 12, 2
	drum_note 2, 2
	drum_note 11, 2
	drum_note 6, 2
	drum_note 12, 2
	drum_note 11, 2
	drum_note 2, 2
	drum_note 12, 2
	drum_note 6, 2
	drum_note 11, 2
	drum_note 2, 2
	drum_note 12, 2
	drum_note 6, 2
	rest 16
	drum_note 2, 2
	drum_note 11, 2
	drum_note 6, 2
	drum_note 12, 2
	drum_note 2, 2
	drum_note 11, 2
	drum_note 6, 2
	drum_note 12, 2
	drum_note 2, 2
	drum_note 11, 2
	drum_note 6, 2
	drum_note 12, 2
	drum_note 2, 2
	drum_note 11, 2
	drum_note 6, 2
	drum_note 12, 2
	drum_note 2, 2
	drum_note 11, 2
	drum_note 6, 2
	drum_note 12, 2
	drum_note 2, 2
	drum_note 11, 2
	drum_note 6, 2
	drum_note 12, 2
	drum_note 2, 2
	drum_note 11, 2
	drum_note 6, 2
	drum_note 12, 2
	drum_note 2, 2
	drum_note 11, 2
	drum_note 6, 2
	drum_note 12, 2
	drum_note 2, 2
	drum_note 11, 2
	drum_note 6, 2
	drum_note 12, 2
	drum_note 2, 2
	drum_note 11, 2
	drum_note 6, 2
	drum_note 12, 2
	drum_note 2, 2
	drum_note 11, 2
	drum_note 6, 2
	drum_note 12, 2
	drum_note 2, 2
	drum_note 11, 2
	drum_note 6, 2
	drum_note 12, 2
	rest 16
	rest 16
	drum_note 2, 2
	drum_note 11, 2
	drum_note 6, 2
	drum_note 12, 2
	drum_note 2, 2
	drum_note 11, 2
	drum_note 6, 2
	drum_note 12, 2
	drum_note 2, 2
	drum_note 11, 2
	drum_note 6, 2
	drum_note 12, 2
	drum_note 2, 2
	drum_note 11, 2
	drum_note 6, 2
	drum_note 12, 2
	drum_note 2, 2
	drum_note 11, 2
	drum_note 6, 2
	drum_note 12, 2
	drum_note 2, 2
	drum_note 11, 2
	drum_note 6, 2
	drum_note 12, 2
	drum_note 2, 2
	drum_note 11, 2
	drum_note 6, 2
	drum_note 12, 2
	drum_note 2, 2
	drum_note 11, 2
	drum_note 6, 2
	drum_note 12, 2
	drum_note 2, 2
	drum_note 11, 2
	drum_note 6, 2
	drum_note 12, 2
	drum_note 2, 2
	drum_note 11, 2
	drum_note 6, 2
	drum_note 12, 2
	drum_note 2, 2
	drum_note 11, 2
	drum_note 6, 2
	drum_note 12, 2
	drum_note 2, 2
	drum_note 11, 2
	drum_note 6, 2
	drum_note 12, 2
	drum_note 11, 2
	drum_note 2, 2
	drum_note 12, 2
	drum_note 6, 2
	drum_note 11, 2
	drum_note 2, 2
	drum_note 12, 2
	drum_note 6, 2
	rest 16
	drum_note 2, 2
	drum_note 11, 2
	drum_note 6, 2
	drum_note 12, 2
	drum_note 2, 2
	drum_note 11, 2
	drum_note 6, 2
	drum_note 12, 2
	drum_note 2, 2
	drum_note 11, 2
	drum_note 6, 2
	drum_note 12, 2
	drum_note 2, 2
	drum_note 11, 2
	drum_note 6, 2
	drum_note 12, 2
	drum_note 2, 2
	drum_note 11, 2
	drum_note 6, 2
	drum_note 12, 2
	drum_note 2, 2
	drum_note 11, 2
	drum_note 6, 2
	drum_note 12, 2
	drum_note 2, 2
	drum_note 11, 2
	drum_note 6, 2
	drum_note 12, 2
	drum_note 2, 2
	drum_note 11, 2
	drum_note 6, 2
	drum_note 12, 2
	drum_note 2, 2
	drum_note 11, 2
	drum_note 6, 2
	drum_note 12, 2
	drum_note 2, 2
	drum_note 11, 2
	drum_note 6, 2
	drum_note 12, 2
	drum_note 2, 2
	drum_note 11, 2
	drum_note 6, 2
	drum_note 12, 2
	drum_note 2, 2
	drum_note 11, 2
	drum_note 6, 2
	drum_note 12, 2
	rest 16
	rest 16
	toggle_noise
	toggle_noise 5
	drum_note 4, 4
	drum_note 2, 4
	drum_note 4, 4
	drum_note 2, 4
	drum_note 4, 4
	drum_note 2, 4
	drum_note 4, 4
	drum_note 2, 4
	drum_note 4, 4
	drum_note 2, 4
	drum_note 4, 4
	drum_note 2, 4
	drum_note 4, 4
	drum_note 2, 4
	drum_note 4, 4
	drum_note 2, 4
	drum_note 4, 4
	drum_note 2, 4
	drum_note 4, 4
	drum_note 2, 4
	drum_note 4, 4
	drum_note 2, 4
	drum_note 4, 4
	drum_note 2, 4
	drum_note 4, 4
	drum_note 2, 4
	drum_note 4, 4
	drum_note 2, 4
	drum_note 4, 4
	drum_note 2, 4
	drum_note 4, 4
	drum_note 2, 4
	drum_note 4, 4
	drum_note 2, 4
	drum_note 4, 4
	drum_note 2, 4
	drum_note 4, 4
	drum_note 2, 4
	drum_note 4, 4
	drum_note 2, 4
	drum_note 4, 4
	drum_note 2, 4
	drum_note 4, 4
	drum_note 2, 4
	drum_note 4, 4
	drum_note 2, 4
	drum_note 4, 4
	drum_note 2, 4
	drum_note 4, 4
	drum_note 2, 4
	drum_note 4, 4
	drum_note 2, 4
	drum_note 4, 4
	drum_note 2, 4
	drum_note 4, 4
	drum_note 2, 2
	rest 16
	rest 16
	rest 2
	toggle_noise
	toggle_noise 6
	drum_note 2, 2
	drum_note 11, 2
	drum_note 6, 2
	drum_note 12, 2
	drum_note 2, 2
	drum_note 11, 2
	drum_note 6, 2
	drum_note 12, 2
	drum_note 2, 2
	drum_note 11, 2
	drum_note 6, 2
	drum_note 12, 2
	drum_note 2, 2
	drum_note 11, 2
	drum_note 6, 2
	drum_note 12, 2
	drum_note 2, 2
	drum_note 11, 2
	drum_note 6, 2
	drum_note 12, 2
	drum_note 2, 2
	drum_note 11, 2
	drum_note 6, 2
	drum_note 12, 2
	drum_note 2, 2
	drum_note 11, 2
	drum_note 6, 2
	drum_note 12, 2
	drum_note 2, 2
	drum_note 11, 2
	drum_note 6, 2
	drum_note 12, 2
	drum_note 2, 2
	drum_note 11, 2
	drum_note 6, 2
	drum_note 12, 2
	drum_note 2, 2
	drum_note 11, 2
	drum_note 6, 2
	drum_note 12, 2
	drum_note 2, 2
	drum_note 11, 2
	drum_note 6, 2
	drum_note 12, 2
	drum_note 2, 2
	drum_note 11, 2
	drum_note 6, 2
	drum_note 12, 2
	drum_note 2, 4
	drum_note 6, 4
	drum_note 2, 4
	drum_note 6, 4
	drum_note 2, 4
	drum_note 6, 4
	drum_note 2, 4
	drum_note 6, 4
	drum_note 2, 2
	drum_note 11, 2
	drum_note 6, 2
	drum_note 12, 2
	drum_note 2, 2
	drum_note 11, 2
	drum_note 6, 2
	drum_note 12, 2
	drum_note 2, 2
	drum_note 11, 2
	drum_note 6, 2
	drum_note 12, 2
	drum_note 2, 2
	drum_note 11, 2
	drum_note 6, 2
	drum_note 12, 2
	drum_note 2, 2
	drum_note 11, 2
	drum_note 6, 2
	drum_note 12, 2
	drum_note 2, 2
	drum_note 11, 2
	drum_note 6, 2
	drum_note 12, 2
	drum_note 2, 2
	drum_note 11, 2
	drum_note 6, 2
	drum_note 12, 2
	drum_note 2, 2
	drum_note 11, 2
	drum_note 6, 2
	drum_note 12, 2
	drum_note 2, 2
	drum_note 11, 2
	drum_note 6, 2
	drum_note 12, 2
	drum_note 2, 2
	drum_note 11, 2
	drum_note 6, 2
	drum_note 12, 2
	drum_note 2, 2
	drum_note 11, 2
	drum_note 6, 2
	drum_note 12, 2
	drum_note 2, 2
	drum_note 11, 2
	drum_note 6, 2
	drum_note 12, 2
	drum_note 2, 4
	drum_note 6, 4
	drum_note 2, 4
	drum_note 6, 4
	drum_note 2, 4
	drum_note 6, 4
	drum_note 2, 4
	drum_note 6, 4
	drum_note 2, 2
	drum_note 11, 2
	drum_note 6, 2
	drum_note 12, 2
	drum_note 2, 2
	drum_note 11, 2
	drum_note 6, 2
	drum_note 12, 2
	drum_note 2, 2
	drum_note 11, 2
	drum_note 6, 2
	drum_note 12, 2
	drum_note 2, 2
	drum_note 11, 2
	drum_note 6, 2
	drum_note 12, 2
	drum_note 2, 2
	drum_note 11, 2
	drum_note 6, 2
	drum_note 12, 2
	drum_note 2, 2
	drum_note 11, 2
	drum_note 6, 2
	drum_note 12, 2
	drum_note 2, 2
	drum_note 11, 2
	drum_note 6, 2
	drum_note 12, 2
	drum_note 2, 2
	drum_note 11, 2
	drum_note 6, 2
	drum_note 12, 2
	drum_note 2, 2
	drum_note 11, 2
	drum_note 6, 2
	drum_note 12, 2
	drum_note 2, 2
	drum_note 11, 2
	drum_note 6, 2
	drum_note 12, 2
	drum_note 2, 2
	drum_note 11, 2
	drum_note 6, 2
	drum_note 12, 2
	drum_note 2, 2
	drum_note 11, 2
	drum_note 6, 2
	drum_note 12, 2
	drum_note 2, 4
	drum_note 6, 4
	drum_note 2, 4
	drum_note 6, 4
	drum_note 2, 4
	drum_note 6, 4
	drum_note 2, 4
	drum_note 6, 4
	drum_note 2, 2
	drum_note 11, 2
	drum_note 6, 2
	drum_note 12, 2
	drum_note 2, 2
	drum_note 11, 2
	drum_note 6, 2
	drum_note 12, 2
	drum_note 2, 2
	drum_note 11, 2
	drum_note 6, 2
	drum_note 12, 2
	drum_note 2, 2
	drum_note 11, 2
	drum_note 6, 2
	drum_note 12, 2
	drum_note 2, 2
	drum_note 11, 2
	drum_note 6, 2
	drum_note 12, 2
	drum_note 2, 2
	drum_note 11, 2
	drum_note 6, 2
	drum_note 12, 2
	drum_note 2, 2
	drum_note 11, 2
	drum_note 6, 2
	drum_note 12, 2
	drum_note 2, 2
	drum_note 11, 2
	drum_note 6, 2
	drum_note 12, 2
	drum_note 2, 2
	drum_note 11, 2
	drum_note 6, 2
	drum_note 12, 2
	drum_note 2, 2
	drum_note 11, 2
	drum_note 6, 2
	drum_note 12, 2
	drum_note 2, 2
	drum_note 11, 2
	drum_note 6, 2
	drum_note 12, 2
	drum_note 2, 2
	drum_note 11, 2
	drum_note 6, 2
	drum_note 12, 2
	drum_note 2, 2
	drum_note 11, 2
	drum_note 6, 2
	drum_note 12, 2
	drum_note 2, 2
	drum_note 11, 2
	drum_note 6, 2
	drum_note 12, 2
	drum_note 2, 2
	drum_note 11, 2
	drum_note 6, 2
	drum_note 12, 2
	drum_note 2, 2
	drum_note 11, 2
	drum_note 6, 2
	drum_note 12, 2
	drum_note 2, 2
	drum_note 11, 2
	drum_note 6, 2
	drum_note 12, 2
	drum_note 2, 2
	drum_note 11, 2
	drum_note 6, 2
	drum_note 12, 2
	drum_note 2, 2
	drum_note 11, 2
	drum_note 6, 2
	drum_note 12, 2
	drum_note 2, 2
	drum_note 11, 2
	drum_note 6, 2
	drum_note 12, 2
	drum_note 2, 2
	drum_note 11, 2
	drum_note 6, 2
	drum_note 12, 2
	drum_note 2, 2
	drum_note 11, 2
	drum_note 6, 2
	drum_note 12, 2
	drum_note 2, 2
	drum_note 11, 2
	drum_note 6, 2
	drum_note 12, 2
	drum_note 2, 2
	drum_note 11, 2
	drum_note 6, 2
	drum_note 12, 2
	drum_note 2, 2
	drum_note 11, 2
	drum_note 6, 2
	drum_note 12, 2
	drum_note 2, 2
	drum_note 11, 2
	drum_note 6, 2
	drum_note 12, 2
	drum_note 2, 2
	drum_note 11, 2
	drum_note 6, 2
	drum_note 12, 2
	drum_note 2, 2
	drum_note 11, 2
	drum_note 6, 2
	drum_note 12, 2
	drum_note 11, 2
	drum_note 2, 2
	drum_note 12, 2
	drum_note 6, 2
	drum_note 11, 2
	drum_note 2, 2
	drum_note 12, 2
	drum_note 6, 2
	rest 16
	drum_note 2, 2
	drum_note 11, 2
	drum_note 6, 2
	drum_note 12, 2
	drum_note 2, 2
	drum_note 11, 2
	drum_note 6, 2
	drum_note 12, 2
	drum_note 2, 2
	drum_note 11, 2
	drum_note 6, 2
	drum_note 12, 2
	drum_note 2, 2
	drum_note 11, 2
	drum_note 6, 2
	drum_note 12, 2
	drum_note 2, 2
	drum_note 11, 2
	drum_note 6, 2
	drum_note 12, 2
	drum_note 2, 2
	drum_note 11, 2
	drum_note 6, 2
	drum_note 12, 2
	drum_note 2, 2
	drum_note 11, 2
	drum_note 6, 2
	drum_note 12, 2
	drum_note 2, 2
	drum_note 11, 2
	drum_note 6, 2
	drum_note 12, 2
	drum_note 2, 2
	drum_note 11, 2
	drum_note 6, 2
	drum_note 12, 2
	drum_note 2, 2
	drum_note 11, 2
	drum_note 6, 2
	drum_note 12, 2
	drum_note 2, 2
	drum_note 11, 2
	drum_note 6, 2
	drum_note 12, 2
	drum_note 2, 2
	drum_note 11, 2
	drum_note 6, 2
	drum_note 12, 2
	drum_note 2, 2
	drum_note 11, 2
	drum_note 6, 2
	drum_note 12, 2
	drum_note 2, 2
	drum_note 11, 2
	drum_note 6, 2
	drum_note 12, 2
	drum_note 2, 2
	drum_note 11, 2
	drum_note 6, 2
	drum_note 12, 2
	drum_note 2, 2
	drum_note 11, 2
	drum_note 6, 2
	drum_note 12, 2
	drum_note 2, 2
	drum_note 11, 2
	drum_note 6, 2
	drum_note 12, 2
	drum_note 2, 2
	drum_note 11, 2
	drum_note 6, 2
	drum_note 12, 2
	drum_note 2, 2
	drum_note 11, 2
	drum_note 6, 2
	drum_note 12, 2
	drum_note 2, 2
	drum_note 11, 2
	drum_note 6, 2
	drum_note 12, 2
	drum_note 2, 2
	drum_note 11, 2
	drum_note 6, 2
	drum_note 12, 2
	drum_note 2, 2
	drum_note 11, 2
	drum_note 6, 2
	drum_note 12, 2
	drum_note 2, 2
	drum_note 11, 2
	drum_note 6, 2
	drum_note 12, 2
	drum_note 2, 2
	drum_note 11, 2
	drum_note 6, 2
	drum_note 12, 2
	drum_note 2, 2
	drum_note 11, 2
	drum_note 6, 2
	drum_note 12, 2
	drum_note 2, 2
	drum_note 11, 2
	drum_note 6, 2
	drum_note 12, 2
	drum_note 2, 2
	drum_note 11, 2
	drum_note 6, 2
	drum_note 12, 2
	drum_note 2, 2
	drum_note 11, 2
	drum_note 6, 2
	drum_note 12, 2
	rest 16
	rest 16
	rest 16
	rest 16
	rest 16
	rest 16
	rest 16
	rest 16
	rest 16
	rest 16
	rest 16
	rest 16
	rest 16
	rest 16
	rest 16
	rest 16
	rest 16
	rest 16
	drum_note 2, 2
	drum_note 11, 2
	drum_note 6, 2
	drum_note 12, 2
	drum_note 2, 2
	drum_note 11, 2
	drum_note 6, 2
	drum_note 12, 2
	drum_note 2, 2
	drum_note 11, 2
	drum_note 6, 2
	drum_note 12, 2
	drum_note 2, 2
	drum_note 11, 2
	drum_note 6, 2
	drum_note 12, 2
	drum_note 2, 2
	drum_note 11, 2
	drum_note 6, 2
	drum_note 12, 2
	drum_note 2, 2
	drum_note 11, 2
	drum_note 6, 2
	drum_note 12, 2
	drum_note 2, 2
	drum_note 11, 2
	drum_note 6, 2
	drum_note 12, 2
	drum_note 2, 2
	drum_note 11, 2
	drum_note 6, 2
	drum_note 12, 2
	drum_note 2, 2
	drum_note 11, 2
	drum_note 6, 2
	drum_note 12, 2
	drum_note 2, 2
	drum_note 11, 2
	drum_note 6, 2
	drum_note 12, 2
	drum_note 2, 2
	drum_note 11, 2
	drum_note 6, 2
	drum_note 12, 2
	drum_note 2, 2
	drum_note 11, 2
	drum_note 6, 2
	drum_note 12, 2
	drum_note 2, 2
	drum_note 11, 2
	drum_note 6, 2
	drum_note 12, 2
	drum_note 2, 2
	drum_note 11, 2
	drum_note 6, 2
	drum_note 12, 2
	drum_note 2, 2
	drum_note 11, 2
	drum_note 6, 2
	drum_note 12, 2
	drum_note 2, 2
	drum_note 11, 2
	drum_note 6, 2
	drum_note 12, 2
	drum_note 2, 2
	drum_note 11, 2
	drum_note 6, 2
	drum_note 12, 2
	drum_note 2, 2
	drum_note 11, 2
	drum_note 6, 2
	drum_note 12, 2
	drum_note 2, 2
	drum_note 11, 2
	drum_note 6, 2
	drum_note 12, 2
	drum_note 2, 2
	drum_note 11, 2
	drum_note 6, 2
	drum_note 12, 2
	drum_note 2, 2
	drum_note 11, 2
	drum_note 6, 2
	drum_note 12, 2
	drum_note 2, 2
	drum_note 11, 2
	drum_note 6, 2
	drum_note 12, 2
	drum_note 2, 2
	drum_note 11, 2
	drum_note 6, 2
	drum_note 12, 2
	drum_note 2, 2
	drum_note 11, 2
	drum_note 6, 2
	drum_note 12, 2
	drum_note 2, 2
	drum_note 11, 2
	drum_note 6, 2
	drum_note 12, 2
	drum_note 2, 2
	drum_note 11, 2
	drum_note 6, 2
	drum_note 12, 2
	drum_note 2, 2
	drum_note 11, 2
	drum_note 6, 2
	drum_note 12, 2
	drum_note 2, 2
	drum_note 11, 2
	drum_note 6, 2
	drum_note 12, 2
	drum_note 2, 2
	drum_note 11, 2
	drum_note 6, 2
	drum_note 12, 2
	drum_note 2, 2
	drum_note 11, 2
	drum_note 6, 2
	drum_note 12, 2
	drum_note 2, 2
	drum_note 11, 2
	drum_note 6, 2
	drum_note 12, 2
	drum_note 2, 2
	drum_note 11, 2
	drum_note 6, 2
	drum_note 12, 2
	drum_note 2, 2
	drum_note 11, 2
	drum_note 6, 2
	drum_note 12, 2
	drum_note 2, 2
	drum_note 11, 2
	drum_note 6, 2
	drum_note 12, 2
	drum_note 2, 2
	drum_note 11, 2
	drum_note 6, 2
	drum_note 12, 2
	drum_note 2, 2
	drum_note 11, 2
	drum_note 6, 2
	drum_note 12, 2
	drum_note 2, 2
	drum_note 11, 2
	drum_note 6, 2
	drum_note 12, 2
	drum_note 2, 2
	drum_note 11, 2
	drum_note 6, 2
	drum_note 12, 2
	drum_note 2, 2
	drum_note 11, 2
	drum_note 6, 2
	drum_note 12, 2
	drum_note 2, 2
	drum_note 11, 2
	drum_note 6, 2
	drum_note 12, 2
	drum_note 2, 2
	drum_note 11, 2
	drum_note 6, 2
	drum_note 12, 2
	drum_note 2, 2
	drum_note 11, 2
	drum_note 6, 2
	drum_note 12, 2
	drum_note 2, 2
	drum_note 11, 2
	drum_note 6, 2
	drum_note 12, 2
	drum_note 2, 2
	drum_note 11, 2
	drum_note 6, 2
	drum_note 12, 2
	drum_note 2, 2
	drum_note 11, 2
	drum_note 6, 2
	drum_note 12, 2
	drum_note 2, 2
	drum_note 11, 2
	drum_note 6, 2
	drum_note 12, 2
	drum_note 2, 2
	drum_note 11, 2
	drum_note 6, 2
	drum_note 12, 2
	drum_note 2, 2
	drum_note 11, 2
	drum_note 6, 2
	drum_note 12, 2
	drum_note 2, 2
	drum_note 11, 2
	drum_note 6, 2
	drum_note 12, 2
	drum_note 2, 2
	drum_note 11, 2
	drum_note 6, 2
	drum_note 12, 2
	drum_note 2, 2
	drum_note 11, 2
	drum_note 6, 2
	drum_note 12, 2
	drum_note 2, 2
	drum_note 11, 2
	drum_note 6, 2
	drum_note 12, 2
	rest 8
	drum_speed 1
	rest 10
	drum_speed 6
	rest 2
	drum_speed 1
	rest 3
	drum_speed 6
	rest 4
	drum_speed 1
	rest 1
	drum_speed 6
	sound_jump .mainloop
