Music_Bergentruckung:
	channel_count 4
	channel 1, Music_Bergentruckung_Ch1
	channel 2, Music_Bergentruckung_Ch2
	channel 3, Music_Bergentruckung_Ch3
	channel 4, Music_Bergentruckung_Ch4

Music_Bergentruckung_Ch1:
	volume 7, 7
	note_type 6, 15, 7
	tempo 203
	duty_cycle 0
	octave 3
	vibrato 16, 7, 1
	note E_, 2
	rest 2
	note E_, 2
	rest 2
	note G#, 2
	rest 2
	note G#, 2
	rest 2
	note F#, 14
	rest 2
	note D#, 2
	rest 2
	note D#, 2
	rest 2
	note F#, 2
	rest 2
	note F#, 2
	rest 2
	note E_, 14
	rest 2
	note C#, 2
	rest 2
	note C#, 2
	rest 2
	note E_, 2
	rest 2
	note E_, 2
	rest 2
	note D#, 14
	rest 2
	octave 2
	note B_, 2
	rest 6
	octave 3
	note C#, 2
	rest 6
	octave 2
	note G#, 14
	rest 2
	octave 3
	note E_, 2
	rest 2
	note E_, 2
	rest 2
	note G#, 2
	rest 2
	note G#, 2
	rest 2
	note F#, 14
	rest 2
	note B_, 2
	rest 2
	note B_, 2
	rest 2
	note F#, 2
	rest 2
	note F#, 2
	rest 2
	note G#, 14
	rest 2
	note G#, 2
	rest 2
	note F#, 2
	rest 2
	note G#, 2
	rest 2
	note B_, 2
	rest 2
	octave 4
	note C#, 8
	note E_, 2
	rest 2
	note E_, 2
	rest 2
	note D#, 2
	note E_, 1
	note D#, 1
	note C#, 2
	note D#, 1
	note C#, 1
	octave 3
	note B_, 2
	rest 2
	octave 4
	note D#, 2
	rest 2
	note C#, 16
	rest 6
	octave 3
	sound_ret

Music_Bergentruckung_Ch2:
	note_type 6, 15, 7
	duty_cycle 3
	octave 2
	note G#, 2
	rest 2
	note G#, 2
	rest 2
	note B_, 2
	rest 2
	note B_, 2
	rest 2
	octave 3
	note C#, 14
	rest 2
	octave 2
	note F#, 2
	rest 2
	note F#, 2
	rest 2
	note B_, 2
	rest 2
	note B_, 2
	rest 2
	note G#, 14
	rest 2
	note F#, 2
	rest 2
	note F#, 2
	rest 2
	note B_, 2
	rest 2
	note B_, 2
	rest 2
	note B_, 2
	rest 2
	note A_, 2
	rest 2
	note F#, 2
	rest 2
	note G#, 2
	rest 2
	note F#, 2
	rest 2
	note E_, 2
	rest 2
	note F#, 2
	rest 2
	note G#, 2
	rest 2
	note C#, 14
	rest 2
	note G#, 2
	rest 2
	note G#, 2
	rest 2
	note B_, 2
	rest 2
	note B_, 2
	rest 2
	octave 3
	note C#, 14
	rest 2
	note D#, 2
	rest 2
	note D#, 2
	rest 2
	octave 2
	note B_, 2
	rest 2
	note B_, 2
	rest 2
	octave 3
	note D#, 8
	note E_, 6
	rest 2
	note D#, 2
	rest 2
	note C#, 2
	rest 2
	octave 2
	note B_, 2
	rest 2
	octave 3
	note D#, 2
	rest 2
	note E_, 8
	note C#, 8
	octave 2
	note B_, 2
	rest 2
	note E_, 2
	rest 2
	note F#, 2
	rest 2
	note B_, 2
	rest 2
	note G#, 16
	rest 6
	octave 1
	sound_ret

Music_Bergentruckung_Ch3:
	note_type 6, 1, 12
	octave 4
	vibrato 0, 1, 1
	note C#, 2
	rest 6
	note D#, 2
	rest 6
	octave 3
	note A_, 14
	rest 2
	note B_, 2
	rest 6
	octave 4
	note D#, 2
	rest 6
	note C#, 14
	rest 2
	octave 3
	note F#, 2
	rest 6
	note B_, 2
	rest 6
	note A_, 14
	rest 2
	note F#, 2
	rest 6
	note B_, 2
	rest 6
	octave 4
	note C#, 14
	rest 2
	note C#, 2
	rest 6
	note D#, 2
	rest 6
	octave 3
	note A_, 14
	rest 2
	note B_, 2
	rest 6
	octave 4
	note D#, 2
	rest 6
	note C#, 14
	rest 2
	octave 3
	note G#, 2
	rest 6
	note B_, 2
	rest 6
	note A_, 14
	rest 2
	note F#, 2
	rest 6
	note B_, 2
	rest 6
	octave 4
	note C#, 16
	rest 6
	octave 3
	sound_ret

Music_Bergentruckung_Ch4:
	toggle_noise 1
	drum_speed 6
	rest 16
	rest 16
	rest 16
	rest 16
	rest 16
	rest 16
	rest 16
	rest 16
	rest 16
	rest 16
	rest 16
	rest 16
	rest 16
	rest 16
	rest 16
	toggle_noise
	toggle_noise 2
	drum_note 10, 16
	rest 6
	sound_ret
