Music_TheLegend:
	channel_count 4
	channel 1, Music_TheLegend_Ch1
	channel 2, Music_TheLegend_Ch2
	channel 3, Music_TheLegend_Ch3
	channel 4, Music_TheLegend_Ch4

Music_TheLegend_Ch1:
	volume 7, 7
	note_type 6, 10, 7
	tempo 87
	rest 16
	rest 16
	rest 16
	rest 16
	octave 4
	duty_cycle 3
	volume_envelope 4, -7
	note C_, 16
	note C_, 16
	octave 3
	note B_, 16
	note B_, 16
	octave 4
	note C_, 16
	note C_, 16
	note C_, 16
	note C_, 16
	octave 3
	note B_, 16
	note G_, 16
	octave 4
	note D_, 16
	note D_, 6
	rest 10
	octave 3
	note A_, 16
	note A_, 16
	note A_, 16
	note G_, 8
	note F_, 8
	note E_, 16
	note E_, 16
	octave 2
	note B_, 16
	octave 3
	note G_, 16
	note F_, 16
	note F_, 16
	note E_, 16
	note A_, 16
	note A_, 16
	note G#, 8
	note F#, 8
	note G#, 16
	note G#, 16
	note G#, 8
	rest 16
	rest 16
	rest 16
	rest 16
	rest 8
	octave 1
	note A_, 16
	octave 2
	note E_, 16
	note A_, 16
	note A_, 16
	octave 1
	note G_, 16
	octave 2
	note D_, 16
	note B_, 16
	note B_, 16
	octave 1
	note B_, 16
	octave 2
	note C_, 16
	note A_, 16
	note F_, 16
	note F_, 16
	note E_, 16
	note G_, 16
	note G_, 16
	note D_, 16
	note G_, 8
	note A_, 8
	note G_, 16
	octave 3
	note D_, 16
	octave 2
	note B_, 16
	note B_, 16
	note G_, 16
	note G_, 16
	octave 3
	note C_, 16
	note C_, 16
	note C_, 16
	note C_, 16
	octave 2
	note A_, 16
	note A_, 8
	note G#, 4
	note A_, 4
	note B_, 16
	note B_, 16
	octave 3
	duty_cycle 2
	note E_, 16
	note A_, 8
	octave 4
	note C_, 8
	note E_, 16
	note D_, 16
	octave 3
	note B_, 16
	note A_, 16
	note G_, 16
	note G_, 16
	note A_, 16
	note A_, 8
	note B_, 8
	octave 4
	note C_, 16
	octave 3
	note A_, 16
	note B_, 16
	note A_, 16
	note B_, 16
	note B_, 16
	duty_cycle 3
	note F_, 16
	note A_, 8
	octave 4
	note C_, 8
	note A_, 16
	note G_, 16
	note D_, 16
	octave 3
	note A_, 16
	note B_, 16
	note B_, 16
	note C_, 16
	note C_, 16
	note C_, 16
	note C_, 16
	octave 2
	note A_, 16
	note A_, 16
	note G#, 16
	note G#, 16
	octave 3
	duty_cycle 2
	note E_, 16
	note A_, 8
	octave 4
	note C_, 8
	note E_, 16
	note D_, 16
	octave 3
	note B_, 16
	note A_, 16
	note G_, 16
	note G_, 16
	note A_, 16
	note A_, 8
	note B_, 8
	octave 4
	note C_, 16
	octave 3
	note A_, 16
	note B_, 16
	note A_, 16
	note B_, 16
	note B_, 16
	duty_cycle 3
	note F_, 16
	note A_, 8
	octave 4
	note C_, 8
	note A_, 16
	note G_, 16
	note D_, 16
	octave 3
	note A_, 16
	note B_, 16
	note B_, 16
	note C_, 16
	note C_, 16
	note C_, 16
	note C_, 16
	octave 2
	note A_, 16
	note A_, 16
	note G#, 16
	note G#, 16
	note A_, 8
	note A_, 8
	octave 3
	note E_, 8
	note D_, 8
	note E_, 8
	note F_, 8
	note G_, 16
	note G_, 12
	note F_, 4
	note G_, 12
	note A_, 4
	note B_, 16
	octave 4
	note C_, 8
	note D_, 8
	note E_, 16
	note E_, 8
	note G_, 8
	note E_, 16
	note E_, 8
	note D_, 8
	octave 3
	note B_, 16
	note B_, 16
	note B_, 16
	note B_, 16
	duty_cycle 2
	note A_, 8
	note G_, 8
	note A_, 8
	octave 4
	note C_, 8
	octave 3
	note B_, 8
	note A_, 8
	note G_, 8
	note A_, 8
	note B_, 16
	note G_, 8
	note F_, 8
	note G_, 16
	note E_, 8
	note G_, 8
	note A_, 16
	note A_, 8
	note A_, 8
	note G_, 16
	note F_, 16
	note E_, 16
	note E_, 16
	note G#, 16
	note G#, 14
	tempo 118
	note G#, 2
	rest 14
	duty_cycle 0
	octave 4
	note B_, 4
	octave 5
	note C_, 4
	octave 4
	note B_, 4
	note A_, 4
	note E_, 4
	rest 4
	note C_, 4
	rest 4
	note E_, 4
	rest 12
	note B_, 4
	octave 5
	note C_, 4
	octave 4
	note B_, 4
	note A_, 4
	octave 5
	note D_, 16
	note D_, 2
	rest 14
	octave 4
	note B_, 4
	octave 5
	note C_, 4
	octave 4
	note B_, 4
	note A_, 4
	note B_, 12
	rest 4
	octave 5
	note C_, 8
	octave 4
	note G_, 4
	rest 4
	note G_, 4
	note F_, 4
	note E_, 4
	note F_, 4
	note E_, 16
	note E_, 10
	rest 6
	note E_, 4
	note F_, 4
	note E_, 4
	note D_, 4
	octave 3
	note A#, 8
	note F_, 8
	octave 4
	note F_, 8
	note E_, 12
	note D_, 4
	note C_, 4
	note D_, 4
	note E_, 16
	note C_, 8
	note D#, 8
	octave 3
	note B_, 8
	note A_, 8
	note D#, 16
	octave 4
	note D#, 8
	note E_, 16
	note E_, 16
	note E_, 16
	note E_, 16
	rest 10
	octave 3
	sound_ret

Music_TheLegend_Ch2:
	note_type 6, 2, 7
	rest 16
	octave 4
	duty_cycle 2
	volume_envelope 5, -1
	note C_, 8
	octave 3
	note B_, 8
	octave 4
	note C_, 8
	note D_, 8
	note E_, 16
	note E_, 8
	note D_, 8
	note E_, 8
	note F_, 8
	note G_, 16
	note G_, 16
	rest 16
	note A_, 8
	note G_, 8
	note A_, 8
	note B_, 8
	octave 5
	note C_, 16
	octave 4
	note B_, 16
	note B_, 16
	note G_, 16
	note G_, 6
	rest 10
	note F_, 16
	note E_, 16
	note F_, 16
	note A_, 16
	note G_, 16
	note F_, 16
	note E_, 16
	note C_, 16
	note D_, 16
	note D_, 16
	note C_, 16
	note E_, 16
	note D_, 16
	note D_, 16
	note E_, 16
	note E_, 16
	rest 16
	rest 16
	rest 16
	rest 16
	rest 16
	octave 2
	note A_, 16
	octave 3
	note C_, 8
	note E_, 8
	octave 4
	note C_, 16
	octave 3
	note B_, 16
	note G_, 16
	note D_, 16
	note E_, 16
	note E_, 16
	note E_, 16
	note F_, 8
	note G_, 8
	note F_, 16
	note E_, 16
	note D_, 16
	note C_, 16
	note E_, 16
	note E_, 16
	octave 2
	note A_, 16
	octave 3
	note C_, 8
	note E_, 8
	octave 4
	note C_, 16
	octave 3
	note B_, 16
	note G_, 16
	note D_, 16
	note E_, 16
	note E_, 16
	note E_, 16
	note F_, 8
	note G_, 8
	note F_, 16
	note E_, 16
	note D_, 16
	note C_, 16
	note E_, 16
	note E_, 16
	volume_envelope 5, 8
	note A_, 16
	octave 4
	note C_, 8
	note E_, 8
	octave 5
	note C_, 16
	octave 4
	note B_, 16
	note G_, 16
	note D_, 16
	note E_, 16
	note E_, 16
	note E_, 16
	note F_, 8
	note G_, 8
	note F_, 16
	note E_, 16
	note D_, 16
	note C_, 16
	note E_, 16
	note E_, 16
	octave 3
	duty_cycle 3
	note A_, 16
	octave 4
	note C_, 8
	note E_, 8
	octave 5
	note C_, 16
	octave 4
	note B_, 16
	note G_, 16
	note D_, 16
	note E_, 16
	note E_, 16
	octave 5
	duty_cycle 2
	volume_envelope 5, -1
	note E_, 16
	note F_, 8
	note G_, 8
	note F_, 16
	note E_, 16
	note D_, 16
	note C_, 16
	note E_, 16
	note E_, 16
	octave 3
	volume_envelope 5, 8
	note A_, 16
	octave 4
	note C_, 8
	note E_, 8
	octave 5
	note C_, 16
	octave 4
	note B_, 16
	note G_, 16
	note D_, 16
	note E_, 16
	note E_, 16
	note E_, 16
	note F_, 8
	note G_, 8
	note F_, 16
	note E_, 16
	note D_, 16
	note C_, 16
	note E_, 16
	note E_, 16
	octave 3
	duty_cycle 3
	note A_, 16
	octave 4
	note C_, 8
	note E_, 8
	octave 5
	note C_, 16
	octave 4
	note B_, 16
	note G_, 16
	note D_, 16
	note E_, 16
	note E_, 16
	octave 5
	duty_cycle 2
	volume_envelope 5, -1
	note E_, 16
	note F_, 8
	note G_, 8
	note F_, 16
	note E_, 16
	note D_, 16
	note C_, 16
	note E_, 16
	note E_, 16
	octave 2
	duty_cycle 3
	volume_envelope 5, 8
	note A_, 8
	note A_, 8
	octave 4
	note C_, 8
	octave 3
	note B_, 8
	octave 4
	note C_, 8
	note D_, 8
	note E_, 16
	note E_, 12
	note D_, 4
	note E_, 12
	note F_, 4
	note G_, 16
	note A_, 8
	note B_, 8
	octave 5
	note C_, 16
	note C_, 8
	note D_, 8
	note C_, 16
	note C_, 8
	octave 4
	note B_, 8
	note G_, 16
	note G_, 16
	note G_, 16
	note G_, 16
	duty_cycle 2
	note F_, 8
	note E_, 8
	note F_, 8
	note A_, 8
	note G_, 8
	note F_, 8
	note E_, 8
	note F_, 8
	note G_, 16
	note E_, 8
	note D_, 8
	note E_, 16
	note C_, 8
	note E_, 8
	note F_, 16
	note F_, 8
	note E_, 8
	note D_, 16
	note C_, 16
	octave 3
	note B_, 16
	note B_, 16
	octave 4
	note E_, 16
	note E_, 16
	rest 8
	duty_cycle 0
	volume_envelope 9, -7
	note B_, 4
	octave 5
	note C_, 4
	octave 4
	note B_, 4
	note A_, 4
	note E_, 4
	rest 4
	note C_, 4
	rest 4
	note E_, 4
	rest 12
	note B_, 4
	octave 5
	note C_, 4
	octave 4
	note B_, 4
	note A_, 4
	octave 5
	note D_, 16
	note D_, 8
	rest 8
	octave 4
	note B_, 4
	octave 5
	note C_, 4
	octave 4
	note B_, 4
	note A_, 4
	note B_, 12
	rest 4
	octave 5
	note C_, 8
	octave 4
	note G_, 4
	rest 4
	note G_, 4
	note F_, 4
	note E_, 4
	note F_, 4
	note E_, 16
	note E_, 8
	rest 8
	note E_, 4
	note F_, 4
	note E_, 4
	note D_, 4
	octave 3
	note A#, 8
	note F_, 8
	octave 4
	note F_, 8
	note E_, 12
	note D_, 4
	note C_, 4
	note D_, 4
	note E_, 16
	note C_, 8
	note D#, 8
	octave 3
	note B_, 8
	note A_, 8
	note D#, 16
	octave 4
	note D#, 8
	note E_, 16
	note E_, 16
	note E_, 16
	note E_, 16
	rest 16
	octave 3
	sound_ret

Music_TheLegend_Ch3:
	note_type 6, 1, 12
	octave 4
	vibrato 2, 0, 3
	note A_, 16
	note A_, 16
	note A_, 16
	note A_, 16
	note G_, 16
	note G_, 16
	note G_, 16
	note G_, 16
	note F_, 16
	note F_, 16
	note F_, 16
	note F_, 16
	note E_, 8
	rest 8
	octave 3
	note B_, 8
	rest 8
	octave 4
	note B_, 16
	note B_, 16
	note D_, 16
	note D_, 16
	note D_, 16
	note D_, 16
	note C_, 16
	note C_, 16
	octave 3
	note G_, 16
	octave 4
	note C_, 16
	octave 3
	note A#, 16
	note A#, 16
	note A#, 16
	note A#, 16
	note B_, 16
	note B_, 16
	octave 4
	note E_, 16
	note E_, 16
	rest 16
	rest 16
	rest 16
	rest 16
	rest 16
	octave 2
	note A_, 16
	note A_, 16
	note A_, 16
	note A_, 16
	note G_, 16
	note G_, 16
	note G_, 16
	note G_, 16
	note F_, 16
	note F_, 16
	note F_, 16
	note F_, 16
	note E_, 16
	note E_, 16
	note E_, 16
	note E_, 16
	octave 3
	note D_, 16
	note D_, 16
	note D_, 16
	note D_, 16
	note C_, 16
	note C_, 16
	note C_, 16
	note C_, 16
	note A#, 16
	note A#, 16
	note A#, 16
	note A#, 16
	note B_, 16
	octave 2
	note B_, 16
	octave 3
	note E_, 16
	note G#, 16
	octave 2
	note A_, 8
	octave 3
	note E_, 8
	note A_, 8
	note E_, 8
	octave 2
	note A_, 8
	octave 3
	note E_, 8
	note A_, 8
	note E_, 8
	octave 2
	note G_, 8
	octave 3
	note D_, 8
	note B_, 8
	note D_, 8
	octave 2
	note G_, 8
	octave 3
	note D_, 8
	note B_, 8
	note D_, 8
	octave 2
	note F_, 8
	octave 3
	note C_, 8
	note A_, 8
	note C_, 8
	octave 2
	note F_, 8
	octave 3
	note C_, 8
	note A_, 8
	note C_, 8
	octave 2
	note E_, 8
	note B_, 8
	octave 3
	note D_, 8
	octave 2
	note B_, 8
	note E_, 8
	note B_, 8
	octave 3
	note D_, 8
	octave 2
	note B_, 8
	note D_, 8
	note A_, 8
	octave 3
	note D_, 8
	octave 2
	note A_, 8
	note D_, 8
	note A_, 8
	octave 3
	note D_, 8
	octave 2
	note A_, 8
	note C_, 8
	note G_, 8
	note B_, 8
	octave 3
	note C_, 8
	note D_, 8
	note E_, 8
	note G_, 8
	note B_, 8
	note A#, 16
	note A#, 16
	note A#, 16
	note A#, 16
	note B_, 16
	octave 2
	note B_, 16
	octave 3
	note E_, 16
	note G#, 16
	octave 2
	note A_, 8
	octave 3
	note E_, 8
	note A_, 8
	note E_, 8
	octave 2
	note A_, 8
	octave 3
	note E_, 8
	note A_, 8
	note E_, 8
	octave 2
	note G_, 8
	octave 3
	note D_, 8
	note B_, 8
	note D_, 8
	octave 2
	note G_, 8
	octave 3
	note D_, 8
	note B_, 8
	note D_, 8
	octave 2
	note F_, 8
	octave 3
	note C_, 8
	note A_, 8
	note C_, 8
	octave 2
	note F_, 8
	octave 3
	note C_, 8
	note A_, 8
	note C_, 8
	octave 2
	note E_, 8
	note B_, 8
	octave 3
	note D_, 8
	octave 2
	note B_, 8
	note E_, 8
	note B_, 8
	octave 3
	note D_, 8
	octave 2
	note B_, 8
	note D_, 8
	note A_, 8
	octave 3
	note D_, 8
	octave 2
	note A_, 8
	note D_, 8
	note A_, 8
	octave 3
	note D_, 8
	octave 2
	note A_, 8
	note C_, 8
	note G_, 8
	note B_, 8
	octave 3
	note C_, 8
	note D_, 8
	note E_, 8
	note G_, 8
	note B_, 8
	note A#, 16
	note A#, 16
	note A#, 16
	note A#, 16
	note B_, 16
	octave 2
	note B_, 16
	octave 3
	note E_, 16
	note G#, 16
	octave 1
	note A_, 4
	rest 4
	note A_, 16
	note A_, 16
	note A_, 16
	note A_, 8
	note G_, 16
	note G_, 16
	note G_, 16
	note G_, 16
	octave 2
	note F_, 16
	note F_, 16
	note F_, 16
	note F_, 16
	octave 3
	note E_, 16
	note B_, 16
	octave 4
	note G_, 16
	note D_, 16
	octave 3
	note D_, 16
	note D_, 16
	note D_, 16
	note D_, 16
	note C_, 16
	note C_, 16
	note C_, 16
	note C_, 16
	octave 2
	note A#, 16
	note A#, 16
	note A#, 16
	note A#, 16
	note B_, 16
	note B_, 16
	octave 3
	note G#, 16
	note G#, 16
	note A_, 8
	octave 4
	note E_, 4
	rest 4
	note E_, 4
	rest 4
	octave 3
	note A_, 8
	octave 4
	note E_, 4
	rest 4
	note E_, 4
	rest 4
	octave 3
	note G_, 8
	octave 4
	note E_, 4
	rest 4
	note E_, 4
	rest 4
	octave 3
	note G_, 8
	octave 4
	note E_, 4
	rest 4
	note E_, 4
	rest 4
	octave 3
	note F_, 8
	octave 4
	note E_, 4
	rest 4
	note E_, 4
	rest 4
	octave 3
	note F_, 8
	octave 4
	note C_, 4
	rest 4
	note E_, 4
	rest 4
	note C_, 8
	note G_, 4
	rest 4
	note G_, 4
	rest 4
	note G_, 4
	note F_, 4
	note E_, 4
	note F_, 4
	note E_, 4
	note D_, 4
	octave 3
	note A#, 6
	rest 2
	octave 4
	note D_, 4
	rest 4
	note F_, 4
	rest 4
	octave 3
	note A#, 6
	rest 2
	octave 4
	note D_, 4
	rest 4
	note F_, 4
	rest 4
	octave 3
	note A_, 6
	rest 2
	octave 4
	note C_, 4
	rest 4
	note E_, 4
	rest 4
	octave 3
	note A_, 6
	rest 2
	octave 4
	note C_, 4
	rest 4
	note E_, 4
	rest 4
	octave 3
	note B_, 6
	rest 2
	octave 4
	note F#, 4
	rest 4
	note F#, 4
	rest 4
	octave 3
	note B_, 6
	rest 2
	octave 4
	note F#, 4
	rest 4
	note F#, 4
	rest 4
	note E_, 4
	rest 8
	note B_, 4
	rest 8
	note B_, 4
	rest 8
	note E_, 16
	note E_, 16
	note E_, 4
	sound_ret

Music_TheLegend_Ch4:
	toggle_noise 1
	drum_speed 6
	rest 16
	rest 16
	rest 16
	rest 16
	rest 16
	rest 16
	rest 16
	rest 16
	rest 16
	rest 16
	rest 16
	rest 16
	rest 16
	rest 16
	rest 16
	rest 16
	rest 16
	rest 16
	rest 16
	rest 16
	rest 16
	rest 16
	rest 16
	rest 16
	rest 16
	rest 16
	rest 16
	rest 16
	rest 16
	rest 16
	rest 16
	rest 16
	rest 16
	rest 16
	rest 16
	rest 16
	rest 16
	rest 16
	rest 16
	rest 16
	rest 16
	rest 16
	rest 16
	rest 16
	rest 16
	rest 16
	rest 16
	rest 16
	rest 16
	rest 16
	rest 16
	rest 16
	rest 16
	rest 16
	rest 16
	rest 16
	rest 16
	rest 16
	rest 16
	rest 16
	rest 16
	rest 16
	rest 16
	rest 16
	rest 16
	rest 16
	rest 16
	toggle_noise
	toggle_noise 3
	drum_note 2, 8
	drum_note 2, 8
	drum_note 2, 2
	drum_note 2, 2
	drum_note 2, 4
	drum_note 2, 4
	drum_note 2, 4
	drum_note 7, 16
	drum_note 7, 12
	drum_note 2, 4
	drum_note 2, 8
	drum_note 2, 8
	drum_note 2, 2
	drum_note 2, 2
	drum_note 2, 4
	drum_note 2, 8
	drum_note 7, 16
	drum_note 7, 12
	drum_note 2, 4
	drum_note 2, 8
	drum_note 2, 8
	drum_note 2, 2
	drum_note 2, 2
	drum_note 2, 4
	drum_note 2, 8
	drum_note 7, 16
	drum_note 7, 12
	drum_note 2, 4
	drum_note 2, 8
	drum_note 2, 8
	drum_note 2, 2
	drum_note 2, 2
	drum_note 2, 4
	drum_note 2, 8
	drum_note 7, 16
	drum_note 7, 12
	drum_note 2, 4
	drum_note 2, 8
	drum_note 2, 8
	drum_note 2, 2
	drum_note 2, 2
	drum_note 2, 4
	drum_note 2, 8
	drum_note 2, 8
	drum_note 2, 4
	drum_note 2, 4
	drum_note 2, 8
	drum_note 2, 4
	drum_note 2, 4
	drum_note 2, 8
	drum_note 2, 8
	drum_note 2, 2
	drum_note 2, 2
	drum_note 2, 4
	drum_note 2, 8
	drum_note 2, 8
	drum_note 2, 4
	drum_note 2, 4
	drum_note 2, 8
	drum_note 2, 4
	drum_note 2, 4
	drum_note 2, 8
	drum_note 2, 8
	drum_note 2, 2
	drum_note 2, 2
	drum_note 2, 4
	drum_note 2, 8
	drum_note 2, 8
	drum_note 2, 4
	drum_note 2, 4
	drum_note 2, 8
	drum_note 2, 4
	drum_note 2, 4
	drum_note 2, 8
	drum_note 2, 8
	drum_note 2, 2
	drum_note 2, 2
	drum_note 2, 4
	drum_note 2, 8
	drum_note 2, 8
	drum_note 2, 4
	drum_note 2, 4
	drum_note 2, 8
	drum_note 2, 4
	drum_note 2, 4
	drum_note 2, 8
	drum_note 2, 8
	drum_note 2, 2
	drum_note 2, 2
	drum_note 2, 4
	drum_note 2, 8
	drum_note 7, 16
	drum_note 7, 12
	drum_note 2, 4
	drum_note 2, 8
	drum_note 2, 8
	drum_note 2, 2
	drum_note 2, 2
	drum_note 2, 4
	drum_note 2, 8
	drum_note 7, 16
	drum_note 7, 12
	drum_note 2, 4
	drum_note 2, 8
	drum_note 2, 8
	drum_note 2, 2
	drum_note 2, 2
	drum_note 2, 4
	drum_note 2, 8
	drum_note 7, 16
	drum_note 7, 12
	drum_note 2, 4
	drum_note 2, 8
	drum_note 2, 8
	drum_note 2, 2
	drum_note 2, 2
	drum_note 2, 4
	drum_note 2, 8
	drum_note 7, 16
	drum_note 7, 12
	drum_note 2, 4
	drum_note 2, 8
	drum_note 2, 8
	drum_note 2, 2
	drum_note 2, 2
	drum_note 2, 4
	drum_note 2, 8
	drum_note 2, 8
	drum_note 2, 4
	drum_note 2, 4
	drum_note 2, 8
	drum_note 2, 4
	drum_note 2, 4
	drum_note 2, 8
	drum_note 2, 8
	drum_note 2, 2
	drum_note 2, 2
	drum_note 2, 4
	drum_note 2, 8
	drum_note 2, 8
	drum_note 2, 4
	drum_note 2, 4
	drum_note 2, 8
	drum_note 2, 4
	drum_note 2, 4
	drum_note 2, 8
	drum_note 2, 8
	drum_note 2, 2
	drum_note 2, 2
	drum_note 2, 4
	drum_note 2, 8
	drum_note 2, 8
	drum_note 2, 4
	drum_note 2, 4
	drum_note 2, 8
	drum_note 2, 4
	drum_note 2, 4
	drum_note 2, 8
	drum_note 2, 8
	drum_note 2, 2
	drum_note 2, 2
	drum_note 2, 4
	drum_note 2, 8
	drum_note 2, 8
	drum_note 2, 4
	drum_note 2, 4
	drum_note 2, 8
	drum_note 2, 4
	drum_note 2, 4
	drum_note 2, 8
	drum_note 2, 8
	drum_note 2, 2
	drum_note 2, 2
	drum_note 2, 4
	drum_note 6, 8
	drum_note 7, 16
	drum_note 7, 12
	drum_note 2, 4
	drum_note 2, 8
	drum_note 2, 8
	drum_note 2, 2
	drum_note 2, 2
	drum_note 2, 4
	drum_note 2, 8
	drum_note 7, 16
	drum_note 7, 12
	drum_note 2, 4
	drum_note 2, 8
	drum_note 2, 8
	drum_note 2, 2
	drum_note 2, 2
	drum_note 2, 4
	drum_note 2, 8
	drum_note 7, 16
	drum_note 7, 12
	drum_note 2, 4
	drum_note 2, 8
	drum_note 2, 8
	drum_note 2, 2
	drum_note 2, 2
	drum_note 2, 4
	drum_note 2, 8
	drum_note 7, 16
	drum_note 7, 12
	drum_note 2, 4
	drum_note 2, 8
	drum_note 2, 8
	drum_note 2, 2
	drum_note 2, 2
	drum_note 2, 4
	drum_note 2, 8
	drum_note 2, 8
	drum_note 2, 4
	drum_note 2, 4
	drum_note 2, 8
	drum_note 2, 4
	drum_note 2, 4
	drum_note 2, 8
	drum_note 2, 8
	drum_note 2, 2
	drum_note 2, 2
	drum_note 2, 4
	drum_note 2, 8
	drum_note 2, 8
	drum_note 2, 4
	drum_note 2, 4
	drum_note 2, 8
	drum_note 2, 4
	drum_note 2, 4
	drum_note 2, 8
	drum_note 2, 8
	drum_note 2, 2
	drum_note 2, 2
	drum_note 2, 4
	drum_note 2, 8
	sound_ret
