Music_ZeroTwo:
	channel_count 4
	channel 1, Music_ZeroTwo_Ch1
	channel 2, Music_ZeroTwo_Ch2
	channel 3, Music_ZeroTwo_Ch3
	channel 4, Music_ZeroTwo_Ch4

Music_ZeroTwo_Ch1:
	volume 7, 7
	note_type 6, 10, 7
	tempo 127
	rest 16
	rest 16
	rest 16
	rest 16
	volume_envelope 15, -1
	duty_cycle 3
	octave 2
	note A_, 16
	note A_, 16
	note A_, 16
	note A_, 16
	octave 3
	note C_, 16
	note C_, 16
	note C_, 16
	note C_, 16
	octave 2
	note A_, 16
	note A_, 16
	note A_, 16
	note A_, 16
	note A_, 16
	note A_, 16
	note A_, 16
	note B_, 16
	octave 3
	note C_, 16
	note C_, 16
	note C_, 16
	note C_, 16
	note C_, 16
	note C_, 16
	note C_, 16
	note C_, 16
	octave 2
	note B_, 16
	note B_, 16
	note A_, 16
	note A_, 16
	note B_, 16
	note B_, 16
	note A_, 16
	note G_, 16
.mainloop:
	rest 16
	rest 16
	rest 16
	rest 16
	rest 16
	rest 16
	rest 16
	rest 16
	rest 16
	rest 16
	rest 16
	rest 16
	rest 16
	rest 16
	rest 16
	rest 16
	rest 16
	octave 3
	volume_envelope 10, -1
	note E_, 16
	note A_, 16
	octave 4
	note E_, 16
	volume_envelope 9, -1
	note A_, 16
	volume_envelope 10, -1
	note E_, 16
	note C_, 16
	octave 3
	note A_, 16
	octave 4
	note F_, 16
	note F_, 16
	note C_, 16
	note C_, 16
	note D_, 16
	note F_, 16
	note A_, 16
	octave 3
	note B_, 16
	note E_, 16
	note D_, 16
	note E_, 16
	note G#, 16
	note A_, 16
	note B_, 16
	octave 4
	note C_, 16
	octave 3
	note A_, 16
	octave 4
	note D_, 16
	note C_, 16
	octave 3
	note B_, 16
	note A_, 16
	octave 4
	note D_, 16
	note C_, 16
	octave 3
	note B_, 16
	note G_, 15
	rest 16
	rest 1
	octave 4
	volume_envelope 9, -1
	note C_, 16
	note E_, 16
	volume_envelope 10, -1
	note A_, 16
	note G_, 16
	note A_, 16
	volume_envelope 9, -1
	note E_, 16
	note C_, 16
	volume_envelope 10, -1
	note F_, 16
	note F_, 16
	note E_, 16
	note F_, 16
	note D_, 16
	note F_, 16
	octave 3
	note B_, 16
	note B_, 15
	rest 16
	rest 16
	rest 16
	rest 16
	rest 16
	rest 16
	rest 16
	rest 16
	rest 16
	rest 16
	rest 16
	rest 16
	rest 16
	rest 16
	rest 16
	rest 16
	rest 1
	octave 4
	note C_, 8
	octave 3
	note A_, 8
	octave 4
	note C_, 8
	volume_envelope 9, -1
	note D_, 8
	note E_, 8
	volume_envelope 10, -1
	note C_, 8
	volume_envelope 9, -1
	note D_, 8
	note E_, 8
	note A_, 8
	note E_, 8
	note A_, 8
	note B_, 8
	octave 5
	note C_, 8
	octave 4
	note A_, 8
	octave 5
	note C_, 8
	volume_envelope 8, -1
	note D_, 8
	note E_, 8
	octave 4
	volume_envelope 9, -1
	note A_, 8
	octave 5
	note C_, 8
	volume_envelope 8, -1
	note D_, 8
	note E_, 8
	note F_, 8
	note E_, 8
	note F_, 8
	note E_, 8
	note F_, 8
	note E_, 8
	note F_, 8
	note E_, 8
	note F_, 8
	note E_, 8
	note D_, 8
	octave 6
	note C_, 4
	octave 5
	note B_, 4
	octave 6
	note C_, 4
	note D_, 4
	note C_, 4
	octave 5
	note B_, 4
	note A_, 4
	note G_, 4
	note A_, 4
	note B_, 4
	note A_, 4
	note G_, 4
	volume_envelope 9, -1
	note F_, 4
	note E_, 4
	note F_, 4
	volume_envelope 8, -1
	note G_, 4
	volume_envelope 9, -1
	note F_, 4
	note E_, 4
	note D_, 4
	note C_, 4
	note D_, 4
	note E_, 4
	note D_, 4
	note C_, 4
	octave 4
	note B_, 4
	volume_envelope 10, -1
	note A_, 4
	volume_envelope 9, -1
	note B_, 4
	octave 5
	note C_, 4
	octave 4
	note B_, 4
	volume_envelope 10, -1
	note A_, 4
	note G_, 4
	note F_, 4
	note G_, 4
	note A_, 4
	note G_, 4
	note F_, 4
	note E_, 4
	note D_, 4
	note E_, 4
	note F_, 4
	note E_, 4
	note D_, 4
	note C_, 4
	octave 3
	note B_, 4
	octave 4
	note C_, 4
	note D_, 4
	note C_, 4
	octave 3
	note B_, 4
	note A_, 4
	note G_, 4
	note A_, 4
	note B_, 4
	note A_, 4
	note G_, 4
	note F_, 4
	note E_, 4
	note F_, 4
	note G_, 4
	note F_, 4
	note E_, 4
	note F_, 4
	note E_, 4
	note D_, 4
	note F_, 3
	rest 16
	rest 16
	rest 16
	rest 16
	rest 16
	rest 16
	rest 16
	rest 16
	rest 16
	rest 16
	rest 16
	rest 16
	rest 16
	rest 9
	volume_envelope 9, -1
	note A_, 2
	note B_, 2
	octave 4
	note D_, 2
	note F_, 2
	note A_, 2
	note B_, 2
	octave 5
	volume_envelope 8, -1
	note D_, 2
	note F_, 2
	note A_, 2
	note F_, 2
	note D_, 2
	octave 4
	volume_envelope 9, -1
	note B_, 2
	note A_, 2
	note F_, 2
	note D_, 2
	octave 3
	volume_envelope 8, -1
	note B_, 2
	note A_, 2
	note E_, 2
	octave 2
	volume_envelope 7, -1
	note B_, 2
	rest 16
	rest 16
	rest 16
	rest 16
	rest 16
	rest 16
	rest 16
	rest 16
	rest 16
	rest 2
	volume_envelope 9, -1
	note A_, 16
	octave 3
	note C_, 16
	note E_, 16
	note A_, 16
	note F_, 16
	note D_, 16
	octave 2
	note B_, 16
	sound_jump .mainloop

Music_ZeroTwo_Ch2:
	note_type 6, 9, 7
	rest 16
	rest 16
	rest 16
	rest 16
	octave 3
	duty_cycle 0
	volume_envelope 5, -7
	note E_, 16
	note E_, 16
	note E_, 16
	note E_, 16
	note G_, 16
	note G_, 16
	note G_, 16
	note G_, 16
	note F_, 16
	note F_, 16
	note F_, 16
	note F_, 16
	note D_, 16
	note D_, 16
	note D_, 16
	note G_, 16
	note E_, 16
	note E_, 16
	note E_, 16
	note E_, 16
	note G_, 16
	note G_, 16
	note G_, 16
	note G_, 16
	note F_, 16
	note F_, 16
	note F_, 16
	note F_, 16
	note D_, 16
	note D_, 16
	note D_, 16
	note D_, 16
.mainloop:
	volume_envelope 15, -7
	vibrato 11, 1, 2
	note A_, 16
	octave 4
	note G_, 16
	note E_, 16
	note C_, 11
	rest 2
	note C_, 2
	note C#, 1
	note D_, 16
	note D_, 8
	rest 4
	note D_, 1
	note C#, 2
	note C_, 1
	octave 3
	note B_, 16
	note G_, 11
	rest 2
	note G_, 2
	note G#, 1
	note A_, 16
	octave 4
	note F_, 16
	note E_, 16
	note A_, 16
	note B_, 16
	octave 5
	note C_, 16
	note D_, 16
	octave 4
	note B_, 10
	rest 2
	note B_, 1
	octave 5
	note C_, 2
	note D_, 1
	note E_, 16
	note E_, 11
	rest 2
	note D_, 2
	note D#, 1
	note E_, 16
	note C_, 11
	rest 2
	note C_, 2
	note C#, 1
	note D_, 16
	note D_, 9
	rest 3
	note D_, 1
	note C#, 2
	note C_, 1
	octave 4
	note B_, 16
	note G_, 11
	rest 2
	note G_, 2
	note G#, 1
	note A_, 16
	note B_, 16
	octave 5
	note C_, 16
	octave 4
	note F_, 16
	note A_, 16
	note B_, 16
	octave 5
	note C_, 16
	octave 4
	note D_, 16
	note E_, 16
	note D_, 16
	note E_, 16
	note G#, 16
	note A_, 16
	note B_, 16
	octave 5
	note C_, 16
	octave 4
	note A_, 16
	octave 5
	note D_, 16
	note C_, 16
	octave 4
	note B_, 16
	note A_, 16
	octave 5
	note D_, 16
	note C_, 16
	octave 4
	note B_, 16
	note G_, 16
	note A_, 16
	note G_, 16
	note A_, 16
	note E_, 16
	note D_, 16
	note E_, 16
	note C_, 16
	octave 3
	note A_, 16
	octave 4
	note D_, 16
	note C_, 16
	octave 3
	note B_, 16
	note A_, 16
	note G_, 16
	note A_, 16
	note F_, 16
	note D_, 16
	note E_, 8
	note D_, 8
	note E_, 8
	note C_, 8
	note A_, 8
	note G_, 8
	note A_, 8
	note E_, 8
	note B_, 8
	note A_, 8
	note B_, 8
	note G_, 8
	octave 4
	note C_, 8
	octave 3
	note B_, 8
	octave 4
	note C_, 8
	octave 3
	note A_, 8
	octave 4
	note D_, 8
	note C_, 8
	note D_, 8
	octave 3
	note A_, 8
	octave 4
	note E_, 8
	note D_, 8
	note E_, 8
	note C_, 8
	note F_, 8
	note E_, 8
	note F_, 8
	note D_, 8
	note A_, 8
	note F_, 8
	note A_, 8
	note B_, 8
	octave 5
	note C_, 8
	octave 4
	note A_, 8
	octave 5
	note C_, 8
	note D_, 8
	note E_, 8
	note C_, 8
	note D_, 8
	note E_, 8
	note A_, 8
	note E_, 8
	note A_, 8
	note B_, 8
	octave 6
	note C_, 8
	octave 5
	note A_, 8
	octave 6
	note C_, 8
	note D_, 8
	note E_, 8
	octave 5
	note A_, 8
	octave 6
	note C_, 8
	note D_, 8
	note E_, 8
	note F_, 8
	note E_, 8
	note F_, 8
	note E_, 8
	note F_, 8
	note E_, 8
	note F_, 8
	note E_, 8
	note F_, 8
	note E_, 8
	note D_, 8
	note E_, 5
	note D_, 3
	note E_, 5
	note F_, 3
	note E_, 5
	note D_, 3
	note C_, 5
	note D_, 3
	note C_, 5
	octave 5
	note B_, 3
	octave 6
	note C_, 5
	octave 5
	note B_, 3
	note A_, 5
	note G_, 3
	note A_, 5
	note B_, 3
	note A_, 5
	note G_, 3
	note F_, 5
	note E_, 3
	note F_, 5
	note G_, 3
	note F_, 5
	note E_, 3
	note D_, 5
	note C_, 3
	note D_, 5
	note E_, 3
	note D_, 5
	note C_, 3
	octave 4
	note B_, 5
	note A_, 3
	note B_, 5
	octave 5
	note C_, 3
	octave 4
	note B_, 5
	note A_, 3
	note G_, 5
	note F_, 3
	note G_, 5
	note A_, 3
	note G_, 5
	note F_, 3
	note E_, 5
	note D_, 3
	note E_, 5
	note F_, 3
	note E_, 5
	note D_, 3
	note C_, 5
	octave 3
	note B_, 3
	octave 4
	note C_, 5
	note D_, 3
	note C_, 5
	octave 3
	note B_, 3
	note A_, 5
	note G_, 3
	note A_, 5
	note B_, 3
	note A_, 5
	note G_, 3
	note F_, 5
	note E_, 3
	note D_, 5
	note F_, 3
	note E_, 16
	note E_, 16
	note E_, 16
	note E_, 8
	note D_, 15
	note D#, 1
	note E_, 16
	note E_, 16
	note E_, 16
	note D_, 15
	note D#, 1
	note E_, 16
	note E_, 16
	note E_, 15
	note D_, 14
	note D#, 2
	note E_, 16
	note E_, 16
	note E_, 9
	note D_, 8
	octave 2
	note B_, 8
	note B_, 8
	octave 3
	note C_, 16
	note C_, 16
	note C_, 16
	note C_, 16
	note C_, 16
	note C_, 16
	note C_, 16
	note C_, 8
	note_type 6, 15, -7
	rest 16
	rest 16
	rest 16
	rest 16
	rest 16
	rest 16
	rest 16
	rest 16
	sound_jump .mainloop

Music_ZeroTwo_Ch3:
	note_type 6, 1, 0
	rest 16
	rest 16
	rest 16
	rest 16
	octave 2
	vibrato 0, 1, 1
	volume_envelope 1, 1
	note A_, 3
	note A_, 2
	octave 3
	note E_, 3
	octave 2
	note A_, 3
	octave 3
	note G_, 2
	note F_, 3
	octave 2
	note A_, 3
	note A_, 2
	octave 3
	note E_, 3
	octave 2
	note A_, 3
	octave 3
	note G_, 2
	note F_, 3
	octave 2
	note A_, 3
	note A_, 2
	octave 3
	note E_, 3
	octave 2
	note A_, 3
	octave 3
	note G_, 2
	note F_, 3
	octave 2
	note A_, 3
	note A_, 2
	octave 3
	note E_, 3
	octave 2
	note A_, 3
	octave 3
	note G_, 2
	note F_, 3
	octave 2
	note A_, 3
	note A_, 2
	octave 3
	note G_, 3
	octave 2
	note A_, 3
	octave 3
	note A_, 2
	note G_, 3
	octave 2
	note A_, 3
	note A_, 2
	octave 3
	note G_, 3
	octave 2
	note A_, 3
	octave 3
	note A_, 2
	note G_, 3
	octave 2
	note A_, 3
	note A_, 2
	octave 3
	note G_, 3
	octave 2
	note A_, 3
	octave 3
	note A_, 2
	note G_, 3
	octave 2
	note A_, 3
	note A_, 2
	octave 3
	note G_, 3
	octave 2
	note A_, 3
	octave 3
	note A_, 2
	note G_, 3
	octave 2
	note A_, 3
	note A_, 2
	octave 3
	note F_, 3
	octave 2
	note A_, 3
	octave 3
	note E_, 2
	note F_, 3
	octave 2
	note A_, 3
	note A_, 2
	octave 3
	note F_, 3
	octave 2
	note A_, 3
	octave 3
	note E_, 2
	note F_, 3
	octave 2
	note A_, 3
	note A_, 2
	octave 3
	note F_, 3
	octave 2
	note A_, 3
	octave 3
	note E_, 2
	note F_, 3
	octave 2
	note A_, 3
	note A_, 2
	octave 3
	note F_, 3
	octave 2
	note A_, 3
	octave 3
	note E_, 2
	note F_, 3
	octave 2
	note A_, 3
	note A_, 2
	octave 3
	note D_, 3
	octave 2
	note A_, 3
	octave 3
	note E_, 2
	note D_, 3
	octave 2
	note A_, 3
	note A_, 2
	octave 3
	note D_, 3
	octave 2
	note A_, 3
	octave 3
	note E_, 2
	note D_, 3
	octave 2
	note A_, 3
	note A_, 2
	octave 3
	note D_, 3
	octave 2
	note A_, 3
	octave 3
	note E_, 2
	note D_, 3
	octave 2
	note A_, 3
	note A_, 2
	octave 3
	note D_, 3
	octave 2
	note A_, 3
	octave 3
	note C_, 2
	note D_, 3
	octave 2
	note A_, 3
	note A_, 2
	octave 3
	note E_, 3
	octave 2
	note A_, 3
	octave 3
	note G_, 2
	note F_, 3
	octave 2
	note A_, 3
	note A_, 2
	octave 3
	note E_, 3
	octave 2
	note A_, 3
	octave 3
	note G_, 2
	note F_, 3
	octave 2
	note A_, 3
	note A_, 2
	octave 3
	note E_, 3
	octave 2
	note A_, 3
	octave 3
	note G_, 2
	note F_, 3
	octave 2
	note A_, 3
	note A_, 2
	octave 3
	note E_, 3
	octave 2
	note A_, 3
	octave 3
	note G_, 2
	note F_, 3
	octave 2
	note A_, 3
	note A_, 2
	octave 3
	note G_, 3
	octave 2
	note A_, 3
	octave 3
	note A_, 2
	note G_, 3
	octave 2
	note A_, 3
	note A_, 2
	octave 3
	note G_, 3
	octave 2
	note A_, 3
	octave 3
	note A_, 2
	note G_, 3
	octave 2
	note A_, 3
	note A_, 2
	octave 3
	note G_, 3
	octave 2
	note A_, 3
	octave 3
	note A_, 2
	note G_, 3
	octave 2
	note A_, 3
	note A_, 2
	octave 3
	note G_, 3
	octave 2
	note A_, 3
	octave 3
	note A_, 2
	note G_, 3
	octave 2
	note A_, 3
	note A_, 2
	octave 3
	note F_, 3
	octave 2
	note A_, 3
	octave 3
	note E_, 2
	note F_, 3
	octave 2
	note A_, 3
	note A_, 2
	octave 3
	note F_, 3
	octave 2
	note A_, 3
	octave 3
	note E_, 2
	note F_, 3
	octave 2
	note A_, 3
	note A_, 2
	octave 3
	note F_, 3
	octave 2
	note A_, 3
	octave 3
	note E_, 2
	note F_, 3
	octave 2
	note A_, 3
	note A_, 2
	octave 3
	note F_, 3
	octave 2
	note A_, 3
	octave 3
	note E_, 2
	note F_, 3
	octave 2
	note A_, 3
	note A_, 2
	octave 3
	note D_, 3
	octave 2
	note A_, 3
	octave 3
	note E_, 2
	note D_, 3
	octave 2
	note A_, 3
	note A_, 2
	octave 3
	note D_, 3
	octave 2
	note A_, 3
	octave 3
	note E_, 2
	note D_, 3
	octave 2
	note A_, 3
	note A_, 2
	octave 3
	note D_, 3
	octave 2
	note A_, 3
	octave 3
	note E_, 2
	note D_, 3
	octave 2
	note A_, 3
	note A_, 2
	octave 3
	note D_, 3
	octave 2
	note A_, 3
	octave 3
	note C_, 2
	note D_, 3
.mainloop:
	octave 2
	note A_, 3
	note A_, 2
	octave 3
	note E_, 3
	octave 2
	note A_, 3
	octave 3
	note G_, 2
	note F_, 3
	octave 2
	note A_, 3
	note A_, 2
	octave 3
	note E_, 3
	octave 2
	note A_, 3
	octave 3
	note G_, 2
	note F_, 3
	octave 2
	note A_, 3
	note A_, 2
	octave 3
	note E_, 3
	octave 2
	note A_, 3
	octave 3
	note G_, 2
	note F_, 3
	octave 2
	note A_, 3
	note A_, 2
	octave 3
	note E_, 3
	octave 2
	note A_, 3
	octave 3
	note G_, 2
	note F_, 3
	octave 2
	note A_, 3
	note A_, 2
	octave 3
	note G_, 3
	octave 2
	note A_, 3
	octave 3
	note A_, 2
	note G_, 3
	octave 2
	note A_, 3
	note A_, 2
	octave 3
	note G_, 3
	octave 2
	note A_, 3
	octave 3
	note A_, 2
	note G_, 3
	octave 2
	note A_, 3
	note A_, 2
	octave 3
	note G_, 3
	octave 2
	note A_, 3
	octave 3
	note A_, 2
	note G_, 3
	octave 2
	note A_, 3
	note A_, 2
	octave 3
	note G_, 3
	octave 2
	note A_, 3
	octave 3
	note A_, 2
	note G_, 3
	octave 2
	note A_, 3
	note A_, 2
	octave 3
	note F_, 3
	octave 2
	note A_, 3
	octave 3
	note E_, 2
	note F_, 3
	octave 2
	note A_, 3
	note A_, 2
	octave 3
	note F_, 3
	octave 2
	note A_, 3
	octave 3
	note E_, 2
	note F_, 3
	octave 2
	note A_, 3
	note A_, 2
	octave 3
	note F_, 3
	octave 2
	note A_, 3
	octave 3
	note E_, 2
	note F_, 3
	octave 2
	note A_, 3
	note A_, 2
	octave 3
	note F_, 3
	octave 2
	note A_, 3
	octave 3
	note E_, 2
	note F_, 3
	octave 2
	note A_, 3
	note A_, 2
	octave 3
	note D_, 3
	octave 2
	note A_, 3
	octave 3
	note E_, 2
	note D_, 3
	octave 2
	note A_, 3
	note A_, 2
	octave 3
	note D_, 3
	octave 2
	note A_, 3
	octave 3
	note E_, 2
	note D_, 3
	octave 2
	note A_, 3
	note A_, 2
	octave 3
	note D_, 3
	octave 2
	note A_, 3
	octave 3
	note E_, 2
	note D_, 3
	octave 2
	note A_, 3
	note A_, 2
	octave 3
	note D_, 3
	octave 2
	note A_, 3
	octave 3
	note C_, 2
	note D_, 3
	octave 2
	note A_, 3
	note A_, 2
	octave 3
	note E_, 3
	octave 2
	note A_, 3
	octave 3
	note G_, 2
	note F_, 3
	octave 2
	note A_, 3
	note A_, 2
	octave 3
	note E_, 3
	octave 2
	note A_, 3
	octave 3
	note G_, 2
	note F_, 3
	octave 2
	note A_, 3
	note A_, 2
	octave 3
	note E_, 3
	octave 2
	note A_, 3
	octave 3
	note G_, 2
	note F_, 3
	octave 2
	note A_, 3
	note A_, 2
	octave 3
	note E_, 3
	octave 2
	note A_, 3
	octave 3
	note G_, 2
	note F_, 3
	octave 2
	note A_, 3
	note A_, 2
	octave 3
	note G_, 3
	octave 2
	note A_, 3
	octave 3
	note A_, 2
	note G_, 3
	octave 2
	note A_, 3
	note A_, 2
	octave 3
	note G_, 3
	octave 2
	note A_, 3
	octave 3
	note A_, 2
	note G_, 3
	octave 2
	note A_, 3
	note A_, 2
	octave 3
	note G_, 3
	octave 2
	note A_, 3
	octave 3
	note A_, 2
	note G_, 3
	octave 2
	note A_, 3
	note A_, 2
	octave 3
	note G_, 3
	octave 2
	note A_, 3
	octave 3
	note A_, 2
	note G_, 3
	octave 2
	note A_, 3
	note A_, 2
	octave 3
	note F_, 3
	octave 2
	note A_, 3
	octave 3
	note E_, 2
	note F_, 3
	octave 2
	note A_, 3
	note A_, 2
	octave 3
	note F_, 3
	octave 2
	note A_, 3
	octave 3
	note E_, 2
	note F_, 3
	octave 2
	note A_, 3
	note A_, 2
	octave 3
	note F_, 3
	octave 2
	note A_, 3
	octave 3
	note E_, 2
	note F_, 3
	octave 2
	note A_, 3
	note A_, 2
	octave 3
	note F_, 3
	octave 2
	note A_, 3
	octave 3
	note E_, 2
	note F_, 3
	octave 2
	note A_, 3
	note A_, 2
	octave 3
	note D_, 3
	octave 2
	note A_, 3
	octave 3
	note E_, 2
	note D_, 3
	octave 2
	note A_, 3
	note A_, 2
	octave 3
	note D_, 3
	octave 2
	note A_, 3
	octave 3
	note E_, 2
	note D_, 3
	octave 2
	note A_, 3
	note A_, 2
	octave 3
	note D_, 3
	octave 2
	note A_, 3
	octave 3
	note E_, 2
	note D_, 3
	octave 2
	note A_, 3
	note A_, 2
	octave 3
	note D_, 3
	octave 2
	note A_, 3
	octave 3
	note C_, 2
	note D_, 3
	octave 2
	note A_, 3
	note A_, 2
	octave 3
	note E_, 3
	octave 2
	note A_, 3
	octave 3
	note G_, 2
	note F_, 3
	octave 2
	note A_, 3
	note A_, 2
	octave 3
	note E_, 3
	octave 2
	note A_, 3
	octave 3
	note G_, 2
	note F_, 3
	octave 2
	note A_, 3
	note A_, 2
	octave 3
	note E_, 3
	octave 2
	note A_, 3
	octave 3
	note G_, 2
	note F_, 3
	octave 2
	note A_, 3
	note A_, 2
	octave 3
	note E_, 3
	octave 2
	note A_, 3
	octave 3
	note G_, 2
	note F_, 3
	octave 2
	note A_, 3
	note A_, 2
	octave 3
	note G_, 3
	octave 2
	note A_, 3
	octave 3
	note A_, 2
	note G_, 3
	octave 2
	note A_, 3
	note A_, 2
	octave 3
	note G_, 3
	octave 2
	note A_, 3
	octave 3
	note A_, 2
	note G_, 3
	octave 2
	note A_, 3
	note A_, 2
	octave 3
	note G_, 3
	octave 2
	note A_, 3
	octave 3
	note A_, 2
	note G_, 3
	octave 2
	note A_, 3
	note A_, 2
	octave 3
	note G_, 3
	octave 2
	note A_, 3
	octave 3
	note A_, 2
	note G_, 3
	octave 2
	note A_, 3
	note A_, 2
	octave 3
	note F_, 3
	octave 2
	note A_, 3
	octave 3
	note E_, 2
	note F_, 3
	octave 2
	note A_, 3
	note A_, 2
	octave 3
	note F_, 3
	octave 2
	note A_, 3
	octave 3
	note E_, 2
	note F_, 3
	octave 2
	note A_, 3
	note A_, 2
	octave 3
	note F_, 3
	octave 2
	note A_, 3
	octave 3
	note E_, 2
	note F_, 3
	octave 2
	note A_, 3
	note A_, 2
	octave 3
	note F_, 3
	octave 2
	note A_, 3
	octave 3
	note E_, 2
	note F_, 3
	octave 2
	note A_, 3
	note A_, 2
	octave 3
	note D_, 3
	octave 2
	note A_, 3
	octave 3
	note E_, 2
	note D_, 3
	octave 2
	note A_, 3
	note A_, 2
	octave 3
	note D_, 3
	octave 2
	note A_, 3
	octave 3
	note E_, 2
	note D_, 3
	octave 2
	note A_, 3
	note A_, 2
	octave 3
	note D_, 3
	octave 2
	note A_, 3
	octave 3
	note E_, 2
	note D_, 3
	octave 2
	note A_, 3
	note A_, 2
	octave 3
	note D_, 3
	octave 2
	note A_, 3
	octave 3
	note C_, 2
	note D_, 3
	octave 2
	note A_, 3
	note A_, 2
	octave 3
	note E_, 3
	octave 2
	note A_, 3
	octave 3
	note G_, 2
	note F_, 3
	octave 2
	note A_, 3
	note A_, 2
	octave 3
	note E_, 3
	octave 2
	note A_, 3
	octave 3
	note G_, 2
	note F_, 3
	octave 2
	note A_, 3
	note A_, 2
	octave 3
	note E_, 3
	octave 2
	note A_, 3
	octave 3
	note G_, 2
	note F_, 3
	octave 2
	note A_, 3
	note A_, 2
	octave 3
	note E_, 3
	octave 2
	note A_, 3
	octave 3
	note G_, 2
	note F_, 3
	octave 2
	note A_, 3
	note A_, 2
	octave 3
	note G_, 3
	octave 2
	note A_, 3
	octave 3
	note A_, 2
	note G_, 3
	octave 2
	note A_, 3
	note A_, 2
	octave 3
	note G_, 3
	octave 2
	note A_, 3
	octave 3
	note A_, 2
	note G_, 3
	octave 2
	note A_, 3
	note A_, 2
	octave 3
	note G_, 3
	octave 2
	note A_, 3
	octave 3
	note A_, 2
	note G_, 3
	octave 2
	note A_, 3
	note A_, 2
	octave 3
	note G_, 3
	octave 2
	note A_, 3
	octave 3
	note A_, 2
	note G_, 3
	octave 2
	note A_, 3
	note A_, 2
	octave 3
	note F_, 3
	octave 2
	note A_, 3
	octave 3
	note E_, 2
	note F_, 3
	octave 2
	note A_, 3
	note A_, 2
	octave 3
	note F_, 3
	octave 2
	note A_, 3
	octave 3
	note E_, 2
	note F_, 3
	octave 2
	note A_, 3
	note A_, 2
	octave 3
	note F_, 3
	octave 2
	note A_, 3
	octave 3
	note E_, 2
	note F_, 3
	octave 2
	note A_, 3
	note A_, 2
	octave 3
	note F_, 3
	octave 2
	note A_, 3
	octave 3
	note E_, 2
	note F_, 3
	octave 2
	note A_, 3
	note A_, 2
	octave 3
	note D_, 3
	octave 2
	note A_, 3
	octave 3
	note E_, 2
	note D_, 3
	octave 2
	note A_, 3
	note A_, 2
	octave 3
	note D_, 3
	octave 2
	note A_, 3
	octave 3
	note E_, 2
	note D_, 3
	octave 2
	note A_, 3
	note A_, 2
	octave 3
	note D_, 3
	octave 2
	note A_, 3
	octave 3
	note E_, 2
	note D_, 3
	octave 2
	note A_, 3
	note A_, 2
	octave 3
	note D_, 3
	octave 2
	note A_, 3
	octave 3
	note C_, 2
	note D_, 3
	octave 2
	note A_, 3
	note A_, 2
	octave 3
	note E_, 3
	octave 2
	note A_, 3
	octave 3
	note G_, 2
	note F_, 3
	octave 2
	note A_, 3
	note A_, 2
	octave 3
	note E_, 3
	octave 2
	note A_, 3
	octave 3
	note G_, 2
	note F_, 3
	octave 2
	note A_, 3
	note A_, 2
	octave 3
	note E_, 3
	octave 2
	note A_, 3
	octave 3
	note G_, 2
	note F_, 3
	octave 2
	note A_, 3
	note A_, 2
	octave 3
	note E_, 3
	octave 2
	note A_, 3
	octave 3
	note G_, 2
	note F_, 3
	octave 2
	note A_, 3
	note A_, 2
	octave 3
	note G_, 3
	octave 2
	note A_, 3
	octave 3
	note A_, 2
	note G_, 3
	octave 2
	note A_, 3
	note A_, 2
	octave 3
	note G_, 3
	octave 2
	note A_, 3
	octave 3
	note A_, 2
	note G_, 3
	octave 2
	note A_, 3
	note A_, 2
	octave 3
	note G_, 3
	octave 2
	note A_, 3
	octave 3
	note A_, 2
	note G_, 3
	octave 2
	note A_, 3
	note A_, 2
	octave 3
	note G_, 3
	octave 2
	note A_, 3
	octave 3
	note A_, 2
	note G_, 3
	octave 2
	note A_, 3
	note A_, 2
	octave 3
	note F_, 3
	octave 2
	note A_, 3
	octave 3
	note E_, 2
	note F_, 3
	octave 2
	note A_, 3
	note A_, 2
	octave 3
	note F_, 3
	octave 2
	note A_, 3
	octave 3
	note E_, 2
	note F_, 3
	octave 2
	note A_, 3
	note A_, 2
	octave 3
	note F_, 3
	octave 2
	note A_, 3
	octave 3
	note E_, 2
	note F_, 3
	octave 2
	note A_, 3
	note A_, 2
	octave 3
	note F_, 3
	octave 2
	note A_, 3
	octave 3
	note E_, 2
	note F_, 3
	octave 2
	note A_, 3
	note A_, 2
	octave 3
	note D_, 3
	octave 2
	note A_, 3
	octave 3
	note E_, 2
	note D_, 3
	octave 2
	note A_, 3
	note A_, 2
	octave 3
	note D_, 3
	octave 2
	note A_, 3
	octave 3
	note E_, 2
	note D_, 3
	octave 2
	note A_, 3
	note A_, 2
	octave 3
	note D_, 3
	octave 2
	note A_, 3
	octave 3
	note E_, 2
	note D_, 3
	octave 2
	note A_, 3
	note A_, 2
	octave 3
	note D_, 3
	octave 2
	note A_, 3
	octave 3
	note C_, 2
	note D_, 3
	octave 2
	note A_, 3
	note A_, 2
	octave 3
	note E_, 3
	octave 2
	note A_, 3
	octave 3
	note G_, 2
	note F_, 3
	octave 2
	note A_, 3
	note A_, 2
	octave 3
	note E_, 3
	octave 2
	note A_, 3
	octave 3
	note G_, 2
	note F_, 3
	octave 2
	note A_, 3
	note A_, 2
	octave 3
	note E_, 3
	octave 2
	note A_, 3
	octave 3
	note G_, 2
	note F_, 3
	octave 2
	note A_, 3
	note A_, 2
	octave 3
	note E_, 3
	octave 2
	note A_, 3
	octave 3
	note G_, 2
	note F_, 3
	octave 2
	note A_, 3
	note A_, 2
	octave 3
	note G_, 3
	octave 2
	note A_, 3
	octave 3
	note A_, 2
	note G_, 3
	octave 2
	note A_, 3
	note A_, 2
	octave 3
	note G_, 3
	octave 2
	note A_, 3
	octave 3
	note A_, 2
	note G_, 3
	octave 2
	note A_, 3
	note A_, 2
	octave 3
	note G_, 3
	octave 2
	note A_, 3
	octave 3
	note A_, 2
	note G_, 3
	octave 2
	note A_, 3
	note A_, 2
	octave 3
	note G_, 3
	octave 2
	note A_, 3
	octave 3
	note A_, 2
	note G_, 3
	octave 2
	note A_, 3
	note A_, 2
	octave 3
	note F_, 3
	octave 2
	note A_, 3
	octave 3
	note E_, 2
	note F_, 3
	octave 2
	note A_, 3
	note A_, 2
	octave 3
	note F_, 3
	octave 2
	note A_, 3
	octave 3
	note E_, 2
	note F_, 3
	octave 2
	note A_, 3
	note A_, 2
	octave 3
	note F_, 3
	octave 2
	note A_, 3
	octave 3
	note E_, 2
	note F_, 3
	octave 2
	note A_, 3
	note A_, 2
	octave 3
	note F_, 3
	octave 2
	note A_, 3
	octave 3
	note E_, 2
	note F_, 3
	octave 2
	note A_, 3
	note A_, 2
	octave 3
	note D_, 3
	octave 2
	note A_, 3
	octave 3
	note E_, 2
	note D_, 3
	octave 2
	note A_, 3
	note A_, 2
	octave 3
	note D_, 3
	octave 2
	note A_, 3
	octave 3
	note E_, 2
	note D_, 3
	octave 2
	note A_, 3
	note A_, 2
	octave 3
	note D_, 3
	octave 2
	note A_, 3
	octave 3
	note E_, 2
	note D_, 3
	octave 2
	note A_, 3
	note A_, 2
	octave 3
	note D_, 3
	octave 2
	note A_, 3
	octave 3
	note C_, 2
	note D_, 3
	octave 2
	note A_, 3
	note A_, 2
	octave 3
	note E_, 3
	octave 2
	note A_, 3
	octave 3
	note G_, 2
	note F_, 3
	octave 2
	note A_, 3
	note A_, 2
	octave 3
	note E_, 3
	octave 2
	note A_, 3
	octave 3
	note G_, 2
	note F_, 3
	octave 2
	note A_, 3
	note A_, 2
	octave 3
	note E_, 3
	octave 2
	note A_, 3
	octave 3
	note G_, 2
	note F_, 3
	octave 2
	note A_, 3
	note A_, 2
	octave 3
	note E_, 3
	octave 2
	note A_, 3
	octave 3
	note G_, 2
	note F_, 3
	octave 2
	note A_, 3
	note A_, 2
	octave 3
	note G_, 3
	octave 2
	note A_, 3
	octave 3
	note A_, 2
	note G_, 3
	octave 2
	note A_, 3
	note A_, 2
	octave 3
	note G_, 3
	octave 2
	note A_, 3
	octave 3
	note A_, 2
	note G_, 3
	octave 2
	note A_, 3
	note A_, 2
	octave 3
	note G_, 3
	octave 2
	note A_, 3
	octave 3
	note A_, 2
	note G_, 3
	octave 2
	note A_, 3
	note A_, 2
	octave 3
	note G_, 3
	octave 2
	note A_, 3
	octave 3
	note A_, 2
	note G_, 3
	octave 2
	note A_, 3
	note A_, 2
	octave 3
	note F_, 3
	octave 2
	note A_, 3
	octave 3
	note E_, 2
	note F_, 3
	octave 2
	note A_, 3
	note A_, 2
	octave 3
	note F_, 3
	octave 2
	note A_, 3
	octave 3
	note E_, 2
	note F_, 3
	octave 2
	note A_, 3
	note A_, 2
	octave 3
	note F_, 3
	octave 2
	note A_, 3
	octave 3
	note E_, 2
	note F_, 3
	octave 2
	note A_, 3
	note A_, 2
	octave 3
	note F_, 3
	octave 2
	note A_, 3
	octave 3
	note E_, 2
	note F_, 3
	octave 2
	note A_, 3
	note A_, 2
	octave 3
	note D_, 3
	octave 2
	note A_, 3
	octave 3
	note E_, 2
	note D_, 3
	octave 2
	note A_, 3
	note A_, 2
	octave 3
	note D_, 3
	octave 2
	note A_, 3
	octave 3
	note E_, 2
	note D_, 3
	octave 2
	note A_, 3
	note A_, 2
	octave 3
	note D_, 3
	octave 2
	note A_, 3
	octave 3
	note E_, 2
	note D_, 3
	octave 2
	note A_, 3
	note A_, 2
	octave 3
	note D_, 3
	octave 2
	note A_, 3
	octave 3
	note C_, 2
	note D_, 3
	octave 2
	note A_, 3
	note A_, 2
	octave 3
	note E_, 3
	octave 2
	note A_, 3
	octave 3
	note G_, 2
	note F_, 3
	octave 2
	note A_, 3
	note A_, 2
	octave 3
	note E_, 3
	octave 2
	note A_, 3
	octave 3
	note G_, 2
	note F_, 3
	octave 2
	note A_, 3
	note A_, 2
	octave 3
	note E_, 3
	octave 2
	note A_, 3
	octave 3
	note G_, 2
	note F_, 3
	octave 2
	note A_, 3
	note A_, 2
	octave 3
	note E_, 3
	octave 2
	note A_, 3
	octave 3
	note G_, 2
	note F_, 3
	octave 2
	note A_, 3
	note A_, 2
	octave 3
	note G_, 3
	octave 2
	note A_, 3
	octave 3
	note A_, 2
	note G_, 3
	octave 2
	note A_, 3
	note A_, 2
	octave 3
	note G_, 3
	octave 2
	note A_, 3
	octave 3
	note A_, 2
	note G_, 3
	octave 2
	note A_, 3
	note A_, 2
	octave 3
	note G_, 3
	octave 2
	note A_, 3
	octave 3
	note A_, 2
	note G_, 3
	octave 2
	note A_, 3
	note A_, 2
	octave 3
	note G_, 3
	octave 2
	note A_, 3
	octave 3
	note A_, 2
	note G_, 3
	octave 2
	note A_, 3
	note A_, 2
	octave 3
	note F_, 3
	octave 2
	note A_, 3
	octave 3
	note E_, 2
	note F_, 3
	octave 2
	note A_, 3
	note A_, 2
	octave 3
	note F_, 3
	octave 2
	note A_, 3
	octave 3
	note E_, 2
	note F_, 3
	octave 2
	note A_, 3
	note A_, 2
	octave 3
	note F_, 3
	octave 2
	note A_, 3
	octave 3
	note E_, 2
	note F_, 3
	octave 2
	note A_, 3
	note A_, 2
	octave 3
	note F_, 3
	octave 2
	note A_, 3
	octave 3
	note E_, 2
	note F_, 3
	octave 2
	note A_, 3
	note A_, 2
	octave 3
	note D_, 3
	octave 2
	note A_, 3
	octave 3
	note E_, 2
	note D_, 3
	octave 2
	note A_, 3
	note A_, 2
	octave 3
	note D_, 3
	octave 2
	note A_, 3
	octave 3
	note E_, 2
	note D_, 3
	octave 2
	note A_, 3
	note A_, 2
	octave 3
	note D_, 3
	octave 2
	note A_, 3
	octave 3
	note E_, 2
	note D_, 3
	octave 2
	note A_, 3
	note A_, 2
	octave 3
	note D_, 3
	octave 2
	note A_, 3
	octave 3
	note C_, 2
	note D_, 3
	octave 2
	note A_, 3
	note A_, 2
	octave 3
	note E_, 3
	octave 2
	note A_, 3
	octave 3
	note G_, 2
	note F_, 3
	octave 2
	note A_, 3
	note A_, 2
	octave 3
	note E_, 3
	octave 2
	note A_, 3
	octave 3
	note G_, 2
	note F_, 3
	octave 2
	note A_, 3
	note A_, 2
	octave 3
	note E_, 3
	octave 2
	note A_, 3
	octave 3
	note G_, 2
	note F_, 3
	octave 2
	note A_, 3
	note A_, 2
	octave 3
	note E_, 3
	octave 2
	note A_, 3
	octave 3
	note G_, 2
	note F_, 3
	octave 2
	note A_, 3
	note A_, 2
	octave 3
	note G_, 3
	octave 2
	note A_, 3
	octave 3
	note A_, 2
	note G_, 3
	octave 2
	note A_, 3
	note A_, 2
	octave 3
	note G_, 3
	octave 2
	note A_, 3
	octave 3
	note A_, 2
	note G_, 3
	octave 2
	note A_, 3
	note A_, 2
	octave 3
	note G_, 3
	octave 2
	note A_, 3
	octave 3
	note A_, 2
	note G_, 3
	octave 2
	note A_, 3
	note A_, 2
	octave 3
	note G_, 3
	octave 2
	note A_, 3
	octave 3
	note A_, 2
	note G_, 3
	octave 2
	note A_, 3
	note A_, 2
	octave 3
	note F_, 3
	octave 2
	note A_, 3
	octave 3
	note E_, 2
	note F_, 3
	octave 2
	note A_, 3
	note A_, 2
	octave 3
	note F_, 3
	octave 2
	note A_, 3
	octave 3
	note E_, 2
	note F_, 3
	octave 2
	note A_, 3
	note A_, 2
	octave 3
	note F_, 3
	octave 2
	note A_, 3
	octave 3
	note E_, 2
	note F_, 3
	octave 2
	note A_, 3
	note A_, 2
	octave 3
	note F_, 3
	octave 2
	note A_, 3
	octave 3
	note E_, 2
	note F_, 3
	octave 2
	note A_, 3
	note A_, 2
	octave 3
	note D_, 3
	octave 2
	note A_, 3
	octave 3
	note E_, 2
	note D_, 3
	octave 2
	note A_, 3
	note A_, 2
	octave 3
	note D_, 3
	octave 2
	note A_, 3
	octave 3
	note E_, 2
	note D_, 3
	octave 2
	note A_, 3
	note A_, 2
	octave 3
	note D_, 3
	octave 2
	note A_, 3
	octave 3
	note E_, 2
	note D_, 3
	octave 2
	note A_, 3
	note A_, 2
	octave 3
	note D_, 3
	octave 2
	note A_, 3
	octave 3
	note C_, 2
	note D_, 3
	sound_jump .mainloop

Music_ZeroTwo_Ch4:
	toggle_noise 1
	drum_speed 6
	drum_note 1, 5
	drum_note 1, 3
	drum_note 2, 5
	drum_note 2, 6
	drum_note 1, 5
	drum_note 2, 5
	drum_note 2, 6
	drum_note 1, 2
	drum_note 1, 3
	drum_note 2, 5
	drum_note 2, 3
	drum_note 1, 3
	drum_note 1, 5
	drum_note 2, 3
	drum_note 3, 1
	drum_note 3, 1
	drum_note 3, 2
	drum_note 3, 1
	drum_note 1, 5
	drum_note 1, 3
	drum_note 2, 5
	drum_note 2, 6
	drum_note 1, 5
	drum_note 2, 5
	drum_note 2, 6
	drum_note 1, 2
	drum_note 1, 3
	drum_note 2, 5
	drum_note 2, 3
	drum_note 1, 3
	drum_note 1, 5
	drum_note 2, 3
	drum_note 3, 1
	drum_note 3, 1
	drum_note 3, 2
	drum_note 3, 1
	drum_note 1, 5
	drum_note 1, 3
	drum_note 2, 5
	drum_note 2, 6
	drum_note 1, 5
	drum_note 2, 5
	drum_note 2, 6
	drum_note 1, 2
	drum_note 1, 3
	drum_note 2, 5
	drum_note 2, 3
	drum_note 1, 3
	drum_note 1, 5
	drum_note 2, 3
	drum_note 3, 1
	drum_note 3, 1
	drum_note 3, 2
	drum_note 3, 1
	drum_note 1, 5
	drum_note 1, 3
	drum_note 2, 5
	drum_note 2, 6
	drum_note 1, 5
	drum_note 2, 5
	drum_note 2, 6
	drum_note 1, 2
	drum_note 1, 3
	drum_note 2, 5
	drum_note 2, 3
	drum_note 1, 3
	drum_note 1, 5
	drum_note 2, 3
	drum_note 3, 1
	drum_note 3, 1
	drum_note 3, 2
	drum_note 3, 1
	drum_note 1, 5
	drum_note 1, 3
	drum_note 2, 5
	drum_note 2, 6
	drum_note 1, 5
	drum_note 2, 5
	drum_note 2, 6
	drum_note 1, 2
	drum_note 1, 3
	drum_note 2, 5
	drum_note 2, 3
	drum_note 1, 3
	drum_note 1, 5
	drum_note 2, 3
	drum_note 3, 1
	drum_note 3, 1
	drum_note 3, 2
	drum_note 3, 1
	drum_note 1, 5
	drum_note 1, 3
	drum_note 2, 5
	drum_note 2, 6
	drum_note 1, 5
	drum_note 2, 5
	drum_note 2, 6
	drum_note 1, 2
	drum_note 1, 3
	drum_note 2, 5
	drum_note 2, 3
	drum_note 1, 3
	drum_note 1, 5
	drum_note 2, 3
	drum_note 3, 1
	drum_note 3, 1
	drum_note 3, 2
	drum_note 3, 1
	drum_note 1, 5
	drum_note 1, 3
	drum_note 2, 5
	drum_note 2, 6
	drum_note 1, 5
	drum_note 2, 5
	drum_note 2, 6
	drum_note 1, 2
	drum_note 1, 3
	drum_note 2, 5
	drum_note 2, 3
	drum_note 1, 3
	drum_note 1, 5
	drum_note 2, 3
	drum_note 3, 1
	drum_note 3, 1
	drum_note 3, 2
	drum_note 3, 1
	drum_note 1, 5
	drum_note 1, 3
	drum_note 2, 5
	drum_note 2, 6
	drum_note 1, 5
	drum_note 2, 5
	drum_note 2, 6
	drum_note 1, 2
	drum_note 1, 3
	drum_note 2, 5
	drum_note 2, 3
	drum_note 1, 3
	drum_note 1, 5
	drum_note 2, 3
	drum_note 3, 1
	drum_note 3, 1
	drum_note 3, 2
	drum_note 3, 1
	drum_note 1, 5
	drum_note 1, 3
	drum_note 2, 5
	drum_note 2, 6
	drum_note 1, 5
	drum_note 2, 5
	drum_note 2, 6
	drum_note 1, 2
	drum_note 1, 3
	drum_note 2, 5
	drum_note 2, 3
	drum_note 1, 3
	drum_note 1, 5
	drum_note 2, 3
	drum_note 3, 1
	drum_note 3, 1
	drum_note 3, 2
	drum_note 3, 1
.mainloop:
	drum_note 1, 5
	drum_note 1, 3
	drum_note 2, 5
	drum_note 2, 6
	drum_note 1, 5
	drum_note 2, 5
	drum_note 2, 6
	drum_note 1, 2
	drum_note 1, 3
	drum_note 2, 5
	drum_note 2, 3
	drum_note 1, 3
	drum_note 1, 5
	drum_note 2, 3
	drum_note 3, 1
	drum_note 3, 1
	drum_note 3, 2
	drum_note 3, 1
	drum_note 1, 5
	drum_note 1, 3
	drum_note 2, 5
	drum_note 2, 6
	drum_note 1, 5
	drum_note 2, 5
	drum_note 2, 6
	drum_note 1, 2
	drum_note 1, 3
	drum_note 2, 5
	drum_note 2, 3
	drum_note 1, 3
	drum_note 1, 5
	drum_note 2, 3
	drum_note 3, 1
	drum_note 3, 1
	drum_note 3, 2
	drum_note 3, 1
	drum_note 1, 5
	drum_note 1, 3
	drum_note 2, 5
	drum_note 2, 6
	drum_note 1, 5
	drum_note 2, 5
	drum_note 2, 6
	drum_note 1, 2
	drum_note 1, 3
	drum_note 2, 5
	drum_note 2, 3
	drum_note 1, 3
	drum_note 1, 5
	drum_note 2, 3
	drum_note 3, 1
	drum_note 3, 1
	drum_note 3, 2
	drum_note 3, 1
	drum_note 1, 5
	drum_note 1, 3
	drum_note 2, 5
	drum_note 2, 6
	drum_note 1, 5
	drum_note 2, 5
	drum_note 2, 6
	drum_note 1, 2
	drum_note 1, 3
	drum_note 2, 5
	drum_note 2, 3
	drum_note 1, 3
	drum_note 1, 5
	drum_note 2, 3
	drum_note 3, 1
	drum_note 3, 1
	drum_note 3, 2
	drum_note 3, 1
	drum_note 1, 5
	drum_note 1, 3
	drum_note 2, 5
	drum_note 2, 6
	drum_note 1, 5
	drum_note 2, 5
	drum_note 2, 6
	drum_note 1, 2
	drum_note 1, 3
	drum_note 2, 5
	drum_note 2, 3
	drum_note 1, 3
	drum_note 1, 5
	drum_note 2, 3
	drum_note 3, 1
	drum_note 3, 1
	drum_note 3, 2
	drum_note 3, 1
	drum_note 1, 5
	drum_note 1, 3
	drum_note 2, 5
	drum_note 2, 6
	drum_note 1, 5
	drum_note 2, 5
	drum_note 2, 6
	drum_note 1, 2
	drum_note 1, 3
	drum_note 2, 5
	drum_note 2, 3
	drum_note 1, 3
	drum_note 1, 5
	drum_note 2, 3
	drum_note 3, 1
	drum_note 3, 1
	drum_note 3, 2
	drum_note 3, 1
	drum_note 1, 5
	drum_note 1, 3
	drum_note 2, 5
	drum_note 2, 6
	drum_note 1, 5
	drum_note 2, 5
	drum_note 2, 6
	drum_note 1, 2
	drum_note 1, 3
	drum_note 2, 5
	drum_note 2, 3
	drum_note 1, 3
	drum_note 1, 5
	drum_note 2, 3
	drum_note 3, 1
	drum_note 3, 1
	drum_note 3, 2
	drum_note 3, 1
	drum_note 1, 5
	drum_note 1, 3
	drum_note 2, 5
	drum_note 2, 6
	drum_note 1, 5
	drum_note 2, 5
	drum_note 2, 6
	drum_note 1, 2
	drum_note 1, 3
	drum_note 2, 5
	drum_note 2, 3
	drum_note 1, 3
	drum_note 1, 5
	drum_note 2, 3
	drum_note 3, 1
	drum_note 3, 1
	drum_note 3, 2
	drum_note 3, 1
	drum_note 1, 5
	drum_note 1, 3
	drum_note 2, 5
	drum_note 2, 6
	drum_note 1, 5
	drum_note 2, 5
	drum_note 2, 6
	drum_note 1, 2
	drum_note 1, 3
	drum_note 2, 5
	drum_note 2, 3
	drum_note 1, 3
	drum_note 1, 5
	drum_note 2, 3
	drum_note 3, 1
	drum_note 3, 1
	drum_note 3, 2
	drum_note 3, 1
	drum_note 1, 5
	drum_note 1, 3
	drum_note 2, 5
	drum_note 2, 6
	drum_note 1, 5
	drum_note 2, 5
	drum_note 2, 6
	drum_note 1, 2
	drum_note 1, 3
	drum_note 2, 5
	drum_note 2, 3
	drum_note 1, 3
	drum_note 1, 5
	drum_note 2, 3
	drum_note 3, 1
	drum_note 3, 1
	drum_note 3, 2
	drum_note 3, 1
	drum_note 1, 5
	drum_note 1, 3
	drum_note 2, 5
	drum_note 2, 6
	drum_note 1, 5
	drum_note 2, 5
	drum_note 2, 6
	drum_note 1, 2
	drum_note 1, 3
	drum_note 2, 5
	drum_note 2, 3
	drum_note 1, 3
	drum_note 1, 5
	drum_note 2, 3
	drum_note 3, 1
	drum_note 3, 1
	drum_note 3, 2
	drum_note 3, 1
	drum_note 1, 5
	drum_note 1, 3
	drum_note 2, 5
	drum_note 2, 6
	drum_note 1, 5
	drum_note 2, 5
	drum_note 2, 6
	drum_note 1, 2
	drum_note 1, 3
	drum_note 2, 5
	drum_note 2, 3
	drum_note 1, 3
	drum_note 1, 5
	drum_note 2, 3
	drum_note 3, 1
	drum_note 3, 1
	drum_note 3, 2
	drum_note 3, 1
	drum_note 1, 5
	drum_note 1, 3
	drum_note 2, 5
	drum_note 2, 6
	drum_note 1, 5
	drum_note 2, 5
	drum_note 2, 6
	drum_note 1, 2
	drum_note 1, 3
	drum_note 2, 5
	drum_note 2, 3
	drum_note 1, 3
	drum_note 1, 5
	drum_note 2, 3
	drum_note 3, 1
	drum_note 3, 1
	drum_note 3, 2
	drum_note 3, 1
	drum_note 1, 5
	drum_note 1, 3
	drum_note 2, 5
	drum_note 2, 6
	drum_note 1, 5
	drum_note 2, 5
	drum_note 2, 6
	drum_note 1, 2
	drum_note 1, 3
	drum_note 2, 5
	drum_note 2, 3
	drum_note 1, 3
	drum_note 1, 5
	drum_note 2, 3
	drum_note 3, 1
	drum_note 3, 1
	drum_note 3, 2
	drum_note 3, 1
	drum_note 1, 5
	drum_note 1, 3
	drum_note 2, 5
	drum_note 2, 6
	drum_note 1, 5
	drum_note 2, 5
	drum_note 2, 6
	drum_note 1, 2
	drum_note 1, 3
	drum_note 2, 5
	drum_note 2, 3
	drum_note 1, 3
	drum_note 1, 5
	drum_note 2, 3
	drum_note 3, 1
	drum_note 3, 1
	drum_note 3, 2
	drum_note 3, 1
	drum_note 1, 5
	drum_note 1, 3
	drum_note 2, 5
	drum_note 2, 6
	drum_note 1, 5
	drum_note 2, 5
	drum_note 2, 6
	drum_note 1, 2
	drum_note 1, 3
	drum_note 2, 5
	drum_note 2, 3
	drum_note 1, 3
	drum_note 1, 5
	drum_note 2, 3
	drum_note 3, 1
	drum_note 3, 1
	drum_note 3, 2
	drum_note 3, 1
	drum_note 1, 5
	drum_note 1, 3
	drum_note 2, 5
	drum_note 2, 6
	drum_note 1, 5
	drum_note 2, 5
	drum_note 2, 6
	drum_note 1, 2
	drum_note 1, 3
	drum_note 2, 5
	drum_note 2, 3
	drum_note 1, 3
	drum_note 1, 5
	drum_note 2, 3
	drum_note 3, 1
	drum_note 3, 1
	drum_note 3, 2
	drum_note 3, 1
	drum_note 1, 5
	drum_note 1, 3
	drum_note 2, 5
	drum_note 2, 6
	drum_note 1, 5
	drum_note 2, 5
	drum_note 2, 6
	drum_note 1, 2
	drum_note 1, 3
	drum_note 2, 5
	drum_note 2, 3
	drum_note 1, 3
	drum_note 1, 5
	drum_note 2, 3
	drum_note 3, 1
	drum_note 3, 1
	drum_note 3, 2
	drum_note 3, 1
	drum_note 1, 5
	drum_note 1, 3
	drum_note 2, 5
	drum_note 2, 6
	drum_note 1, 5
	drum_note 2, 5
	drum_note 2, 6
	drum_note 1, 2
	drum_note 1, 3
	drum_note 2, 5
	drum_note 2, 3
	drum_note 1, 3
	drum_note 1, 5
	drum_note 2, 3
	drum_note 3, 1
	drum_note 3, 1
	drum_note 3, 2
	drum_note 3, 1
	drum_note 1, 5
	drum_note 1, 3
	drum_note 2, 5
	drum_note 2, 6
	drum_note 1, 5
	drum_note 2, 5
	drum_note 2, 6
	drum_note 1, 2
	drum_note 1, 3
	drum_note 2, 5
	drum_note 2, 3
	drum_note 1, 3
	drum_note 1, 5
	drum_note 2, 3
	drum_note 3, 1
	drum_note 3, 1
	drum_note 3, 2
	drum_note 3, 1
	drum_note 1, 5
	drum_note 1, 3
	drum_note 2, 5
	drum_note 2, 6
	drum_note 1, 5
	drum_note 2, 5
	drum_note 2, 6
	drum_note 1, 2
	drum_note 1, 3
	drum_note 2, 5
	drum_note 2, 3
	drum_note 1, 3
	drum_note 1, 5
	drum_note 2, 3
	drum_note 3, 1
	drum_note 3, 1
	drum_note 3, 2
	drum_note 3, 1
	drum_note 1, 5
	drum_note 1, 3
	drum_note 2, 5
	drum_note 2, 6
	drum_note 1, 5
	drum_note 2, 5
	drum_note 2, 6
	drum_note 1, 2
	drum_note 1, 3
	drum_note 2, 5
	drum_note 2, 3
	drum_note 1, 3
	drum_note 1, 5
	drum_note 2, 3
	drum_note 3, 1
	drum_note 3, 1
	drum_note 3, 2
	drum_note 3, 1
	drum_note 1, 5
	drum_note 1, 3
	drum_note 2, 5
	drum_note 2, 6
	drum_note 1, 5
	drum_note 2, 5
	drum_note 2, 6
	drum_note 1, 2
	drum_note 1, 3
	drum_note 2, 5
	drum_note 2, 3
	drum_note 1, 3
	drum_note 1, 5
	drum_note 2, 3
	drum_note 3, 1
	drum_note 3, 1
	drum_note 3, 2
	drum_note 3, 1
	drum_note 1, 5
	drum_note 1, 3
	drum_note 2, 5
	drum_note 2, 6
	drum_note 1, 5
	drum_note 2, 5
	drum_note 2, 6
	drum_note 1, 2
	drum_note 1, 3
	drum_note 2, 5
	drum_note 2, 3
	drum_note 1, 3
	drum_note 1, 5
	drum_note 2, 3
	drum_note 3, 1
	drum_note 3, 1
	drum_note 3, 2
	drum_note 3, 1
	drum_note 1, 5
	drum_note 1, 3
	drum_note 2, 5
	drum_note 2, 6
	drum_note 1, 5
	drum_note 2, 5
	drum_note 2, 6
	drum_note 1, 2
	drum_note 1, 3
	drum_note 2, 5
	drum_note 2, 3
	drum_note 1, 3
	drum_note 1, 5
	drum_note 2, 3
	drum_note 3, 1
	drum_note 3, 1
	drum_note 3, 2
	drum_note 3, 1
	drum_note 1, 5
	drum_note 1, 3
	drum_note 2, 5
	drum_note 2, 6
	drum_note 1, 5
	drum_note 2, 5
	drum_note 2, 6
	drum_note 1, 2
	drum_note 1, 3
	drum_note 2, 5
	drum_note 2, 3
	drum_note 1, 3
	drum_note 1, 5
	drum_note 2, 3
	drum_note 3, 1
	drum_note 3, 1
	drum_note 3, 2
	drum_note 3, 1
	drum_note 1, 5
	drum_note 1, 3
	drum_note 2, 5
	drum_note 2, 6
	drum_note 1, 5
	drum_note 2, 5
	drum_note 2, 6
	drum_note 1, 2
	drum_note 1, 3
	drum_note 2, 5
	drum_note 2, 3
	drum_note 1, 3
	drum_note 1, 5
	drum_note 2, 3
	drum_note 3, 1
	drum_note 3, 1
	drum_note 3, 2
	drum_note 3, 1
	drum_note 1, 5
	drum_note 1, 3
	drum_note 2, 5
	drum_note 2, 6
	drum_note 1, 5
	drum_note 2, 5
	drum_note 2, 6
	drum_note 1, 2
	drum_note 1, 3
	drum_note 2, 5
	drum_note 2, 3
	drum_note 1, 3
	drum_note 1, 5
	drum_note 2, 3
	drum_note 3, 1
	drum_note 3, 1
	drum_note 3, 2
	drum_note 3, 1
	drum_note 1, 5
	drum_note 1, 3
	drum_note 2, 5
	drum_note 2, 6
	drum_note 1, 5
	drum_note 2, 5
	drum_note 2, 6
	drum_note 1, 2
	drum_note 1, 3
	drum_note 2, 5
	drum_note 2, 3
	drum_note 1, 3
	drum_note 1, 5
	drum_note 2, 3
	drum_note 3, 1
	drum_note 3, 1
	drum_note 3, 2
	drum_note 3, 1
	drum_note 1, 5
	drum_note 1, 3
	drum_note 2, 5
	drum_note 2, 6
	drum_note 1, 5
	drum_note 2, 5
	drum_note 2, 6
	drum_note 1, 2
	drum_note 1, 3
	drum_note 2, 5
	drum_note 2, 3
	drum_note 1, 3
	drum_note 1, 5
	drum_note 2, 3
	drum_note 3, 1
	drum_note 3, 1
	drum_note 3, 2
	drum_note 3, 1
	drum_note 1, 5
	drum_note 1, 3
	drum_note 2, 5
	drum_note 2, 6
	drum_note 1, 5
	drum_note 2, 5
	drum_note 2, 6
	drum_note 1, 2
	drum_note 1, 3
	drum_note 2, 5
	drum_note 2, 3
	drum_note 1, 3
	drum_note 1, 5
	drum_note 2, 3
	drum_note 3, 1
	drum_note 3, 1
	drum_note 3, 2
	drum_note 3, 1
	drum_note 1, 5
	drum_note 1, 3
	drum_note 2, 5
	drum_note 2, 6
	drum_note 1, 5
	drum_note 2, 5
	drum_note 2, 6
	drum_note 1, 2
	drum_note 1, 3
	drum_note 2, 5
	drum_note 2, 3
	drum_note 1, 3
	drum_note 1, 5
	drum_note 2, 3
	drum_note 3, 1
	drum_note 3, 1
	drum_note 3, 2
	drum_note 3, 1
	drum_note 1, 5
	drum_note 1, 3
	drum_note 2, 5
	drum_note 2, 6
	drum_note 1, 5
	drum_note 2, 5
	drum_note 2, 6
	drum_note 1, 2
	drum_note 1, 3
	drum_note 2, 5
	drum_note 2, 3
	drum_note 1, 3
	drum_note 1, 5
	drum_note 2, 3
	drum_note 3, 1
	drum_note 3, 1
	drum_note 3, 2
	drum_note 3, 1
	drum_note 1, 5
	drum_note 1, 3
	drum_note 2, 5
	drum_note 2, 6
	drum_note 1, 5
	drum_note 2, 5
	drum_note 2, 6
	drum_note 1, 2
	drum_note 1, 3
	drum_note 2, 5
	drum_note 2, 3
	drum_note 1, 3
	drum_note 1, 5
	drum_note 2, 3
	drum_note 3, 1
	drum_note 3, 1
	drum_note 3, 2
	drum_note 3, 1
	drum_note 1, 5
	drum_note 1, 3
	drum_note 2, 5
	drum_note 2, 6
	drum_note 1, 5
	drum_note 2, 5
	drum_note 2, 6
	drum_note 1, 2
	drum_note 1, 3
	drum_note 2, 5
	drum_note 2, 3
	drum_note 1, 3
	drum_note 1, 5
	drum_note 2, 3
	drum_note 3, 1
	drum_note 3, 1
	drum_note 3, 2
	drum_note 3, 1
	drum_note 1, 5
	drum_note 1, 3
	drum_note 2, 5
	drum_note 2, 6
	drum_note 1, 5
	drum_note 2, 5
	drum_note 2, 6
	drum_note 1, 2
	drum_note 1, 3
	drum_note 2, 5
	drum_note 2, 3
	drum_note 1, 3
	drum_note 1, 5
	drum_note 2, 3
	drum_note 3, 1
	drum_note 3, 1
	drum_note 3, 2
	drum_note 3, 1
	sound_jump .mainloop
